<mxfile host="app.diagrams.net" agent="Mozilla/5.0 (Windows NT 10.0; Win64; x64; rv:138.0) Gecko/20100101 Firefox/138.0" version="26.1.3">
  <diagram name="Página-1" id="YFNk1bn8d4xc5YvunG0x">
    <mxGraphModel dx="733" dy="362" grid="1" gridSize="10" guides="1" tooltips="1" connect="1" arrows="1" fold="1" page="1" pageScale="1" pageWidth="827" pageHeight="1169" math="0" shadow="0">
      <root>
        <mxCell id="0" />
        <mxCell id="1" parent="0" />
        <mxCell id="IVBSxfab5nylGK4fCPFY-20" value="" style="group" parent="1" vertex="1" connectable="0">
          <mxGeometry x="260" y="130" width="110" height="70" as="geometry" />
        </mxCell>
        <mxCell id="IVBSxfab5nylGK4fCPFY-11" value="" style="whiteSpace=wrap;html=1;aspect=fixed;" parent="IVBSxfab5nylGK4fCPFY-20" vertex="1">
          <mxGeometry width="70" height="70" as="geometry" />
        </mxCell>
        <mxCell id="IVBSxfab5nylGK4fCPFY-19" value="" style="sketch=0;pointerEvents=1;shadow=0;dashed=0;html=1;strokeColor=none;fillColor=#505050;labelPosition=center;verticalLabelPosition=bottom;verticalAlign=top;outlineConnect=0;align=center;shape=mxgraph.office.concepts.address_book;" parent="IVBSxfab5nylGK4fCPFY-20" vertex="1">
          <mxGeometry x="15" y="43" width="40" height="27" as="geometry" />
        </mxCell>
        <mxCell id="IVBSxfab5nylGK4fCPFY-3" value="" style="shape=image;html=1;verticalAlign=top;verticalLabelPosition=bottom;labelBackgroundColor=#ffffff;imageAspect=0;aspect=fixed;image=https://cdn4.iconfinder.com/data/icons/spirit20/file-zip.png" parent="IVBSxfab5nylGK4fCPFY-20" vertex="1">
          <mxGeometry x="30" y="-37" width="80" height="80" as="geometry" />
        </mxCell>
        <mxCell id="IVBSxfab5nylGK4fCPFY-18" value="" style="sketch=0;pointerEvents=1;shadow=0;dashed=0;html=1;strokeColor=none;fillColor=#505050;labelPosition=center;verticalLabelPosition=bottom;verticalAlign=top;outlineConnect=0;align=center;shape=mxgraph.office.concepts.address_book;" parent="IVBSxfab5nylGK4fCPFY-20" vertex="1">
          <mxGeometry x="15" y="10" width="40" height="27" as="geometry" />
        </mxCell>
        <mxCell id="IVBSxfab5nylGK4fCPFY-1" value="" style="swimlane;startSize=0;fillColor=#f8cecc;shadow=1;strokeColor=#b85450;labelBackgroundColor=#CCFF99;gradientColor=none;rounded=0;textShadow=1;swimlaneFillColor=default;" parent="1" vertex="1">
          <mxGeometry x="100" y="90" width="270" height="270" as="geometry" />
        </mxCell>
        <mxCell id="IVBSxfab5nylGK4fCPFY-5" value="" style="html=1;verticalLabelPosition=bottom;align=center;labelBackgroundColor=#ffffff;verticalAlign=top;strokeWidth=2;strokeColor=#0080F0;shadow=0;dashed=0;shape=mxgraph.ios7.icons.storage;" parent="IVBSxfab5nylGK4fCPFY-1" vertex="1">
          <mxGeometry x="29.5" y="240.5" width="50" height="19.5" as="geometry" />
        </mxCell>
        <mxCell id="IVBSxfab5nylGK4fCPFY-58" value="" style="rounded=0;whiteSpace=wrap;html=1;fillColor=#dae8fc;strokeColor=#6c8ebf;" parent="IVBSxfab5nylGK4fCPFY-1" vertex="1">
          <mxGeometry x="20" y="10" width="240" height="130" as="geometry" />
        </mxCell>
        <mxCell id="IVBSxfab5nylGK4fCPFY-38" value="&lt;font style=&quot;font-size: 10px;&quot;&gt;AIP BACKEND&lt;/font&gt;" style="image;aspect=fixed;html=1;points=[];align=center;fontSize=12;image=img/lib/azure2/devops/API_Connections.svg;" parent="IVBSxfab5nylGK4fCPFY-1" vertex="1">
          <mxGeometry x="82" y="70" width="68" height="45.32" as="geometry" />
        </mxCell>
        <mxCell id="IVBSxfab5nylGK4fCPFY-36" value="" style="shape=cylinder3;whiteSpace=wrap;html=1;boundedLbl=1;backgroundOutline=1;size=15;" parent="IVBSxfab5nylGK4fCPFY-1" vertex="1">
          <mxGeometry x="110" y="210" width="40" height="50" as="geometry" />
        </mxCell>
        <mxCell id="IVBSxfab5nylGK4fCPFY-40" style="edgeStyle=orthogonalEdgeStyle;rounded=0;orthogonalLoop=1;jettySize=auto;html=1;entryX=0.5;entryY=0;entryDx=0;entryDy=0;entryPerimeter=0;" parent="IVBSxfab5nylGK4fCPFY-1" source="IVBSxfab5nylGK4fCPFY-38" target="IVBSxfab5nylGK4fCPFY-36" edge="1">
          <mxGeometry relative="1" as="geometry">
            <Array as="points">
              <mxPoint x="130" y="150" />
              <mxPoint x="130" y="150" />
            </Array>
          </mxGeometry>
        </mxCell>
        <mxCell id="fttJyf-UAv3tfDVttIL6-4" value="" style="shape=image;html=1;verticalLabelPosition=bottom;verticalAlign=top;imageAspect=0;image=img/clipart/Gear_128x128.png" vertex="1" parent="IVBSxfab5nylGK4fCPFY-1">
          <mxGeometry x="70" y="40" width="29" height="37" as="geometry" />
        </mxCell>
        <UserObject label="Rotina de Importação" placeholders="1" name="Variable" id="fttJyf-UAv3tfDVttIL6-5">
          <mxCell style="text;html=1;strokeColor=none;fillColor=none;align=center;verticalAlign=middle;whiteSpace=wrap;overflow=hidden;" vertex="1" parent="IVBSxfab5nylGK4fCPFY-1">
            <mxGeometry x="20" y="20" width="130.5" height="20" as="geometry" />
          </mxCell>
        </UserObject>
        <mxCell id="IVBSxfab5nylGK4fCPFY-2" value="" style="swimlane;startSize=0;shadow=1;fillColor=#fff2cc;strokeColor=#d6b656;swimlaneFillColor=default;" parent="1" vertex="1">
          <mxGeometry x="414" y="90" width="270" height="370" as="geometry" />
        </mxCell>
        <mxCell id="fttJyf-UAv3tfDVttIL6-1" value="" style="rounded=0;whiteSpace=wrap;html=1;fillColor=light-dark(#FFFFFF,#7EA6E0);" vertex="1" parent="IVBSxfab5nylGK4fCPFY-2">
          <mxGeometry x="5" y="115.32" width="244" height="124.68" as="geometry" />
        </mxCell>
        <mxCell id="IVBSxfab5nylGK4fCPFY-8" value="API FRONTEND" style="image;aspect=fixed;html=1;points=[];align=center;fontSize=12;image=img/lib/azure2/devops/API_Connections.svg;" parent="IVBSxfab5nylGK4fCPFY-2" vertex="1">
          <mxGeometry x="16" y="110" width="68" height="45.32" as="geometry" />
        </mxCell>
        <mxCell id="IVBSxfab5nylGK4fCPFY-49" style="edgeStyle=orthogonalEdgeStyle;rounded=0;orthogonalLoop=1;jettySize=auto;html=1;" parent="IVBSxfab5nylGK4fCPFY-2" source="IVBSxfab5nylGK4fCPFY-29" target="IVBSxfab5nylGK4fCPFY-8" edge="1">
          <mxGeometry relative="1" as="geometry" />
        </mxCell>
        <mxCell id="IVBSxfab5nylGK4fCPFY-29" value="" style="image;points=[];aspect=fixed;html=1;align=center;shadow=0;dashed=0;image=img/lib/allied_telesis/computer_and_terminals/Personal_Computer_Wireless.svg;" parent="IVBSxfab5nylGK4fCPFY-2" vertex="1">
          <mxGeometry x="28.5" y="15.8" width="63" height="64.2" as="geometry" />
        </mxCell>
        <mxCell id="IVBSxfab5nylGK4fCPFY-42" value="" style="shape=cylinder3;whiteSpace=wrap;html=1;boundedLbl=1;backgroundOutline=1;size=15;" parent="IVBSxfab5nylGK4fCPFY-2" vertex="1">
          <mxGeometry x="167" y="290" width="40" height="50" as="geometry" />
        </mxCell>
        <mxCell id="IVBSxfab5nylGK4fCPFY-51" style="edgeStyle=orthogonalEdgeStyle;rounded=0;orthogonalLoop=1;jettySize=auto;html=1;" parent="IVBSxfab5nylGK4fCPFY-2" source="IVBSxfab5nylGK4fCPFY-44" target="IVBSxfab5nylGK4fCPFY-8" edge="1">
          <mxGeometry relative="1" as="geometry">
            <Array as="points">
              <mxPoint x="173" y="140" />
            </Array>
          </mxGeometry>
        </mxCell>
        <mxCell id="IVBSxfab5nylGK4fCPFY-64" style="edgeStyle=orthogonalEdgeStyle;rounded=0;orthogonalLoop=1;jettySize=auto;html=1;" parent="IVBSxfab5nylGK4fCPFY-2" source="IVBSxfab5nylGK4fCPFY-44" target="IVBSxfab5nylGK4fCPFY-42" edge="1">
          <mxGeometry relative="1" as="geometry" />
        </mxCell>
        <mxCell id="IVBSxfab5nylGK4fCPFY-44" value="&lt;font style=&quot;font-size: 10px;&quot;&gt;AIP BACKEND&lt;/font&gt;" style="image;aspect=fixed;html=1;points=[];align=center;fontSize=12;image=img/lib/azure2/devops/API_Connections.svg;" parent="IVBSxfab5nylGK4fCPFY-2" vertex="1">
          <mxGeometry x="139" y="157.34" width="68" height="45.32" as="geometry" />
        </mxCell>
        <mxCell id="IVBSxfab5nylGK4fCPFY-45" value="" style="sketch=0;pointerEvents=1;shadow=0;dashed=0;html=1;strokeColor=none;fillColor=#505050;labelPosition=center;verticalLabelPosition=bottom;verticalAlign=top;outlineConnect=0;align=center;shape=mxgraph.office.communications.offline_address_book;" parent="IVBSxfab5nylGK4fCPFY-2" vertex="1">
          <mxGeometry x="46" y="240" width="55" height="40" as="geometry" />
        </mxCell>
        <mxCell id="IVBSxfab5nylGK4fCPFY-47" style="edgeStyle=orthogonalEdgeStyle;rounded=0;orthogonalLoop=1;jettySize=auto;html=1;entryX=0.45;entryY=0.436;entryDx=0;entryDy=0;entryPerimeter=0;" parent="IVBSxfab5nylGK4fCPFY-2" source="IVBSxfab5nylGK4fCPFY-45" edge="1">
          <mxGeometry relative="1" as="geometry">
            <mxPoint x="73.5" y="329" as="targetPoint" />
          </mxGeometry>
        </mxCell>
        <mxCell id="IVBSxfab5nylGK4fCPFY-48" value="" style="html=1;verticalLabelPosition=bottom;align=center;labelBackgroundColor=#ffffff;verticalAlign=top;strokeWidth=2;strokeColor=#0080F0;shadow=0;dashed=0;shape=mxgraph.ios7.icons.storage;" parent="IVBSxfab5nylGK4fCPFY-2" vertex="1">
          <mxGeometry x="51" y="330" width="50" height="19.5" as="geometry" />
        </mxCell>
        <mxCell id="IVBSxfab5nylGK4fCPFY-50" style="edgeStyle=orthogonalEdgeStyle;rounded=0;orthogonalLoop=1;jettySize=auto;html=1;entryX=0.368;entryY=0.103;entryDx=0;entryDy=0;entryPerimeter=0;" parent="IVBSxfab5nylGK4fCPFY-2" edge="1">
          <mxGeometry relative="1" as="geometry">
            <mxPoint x="84" y="150.00000000000006" as="sourcePoint" />
            <mxPoint x="164.0239999999999" y="179.30796000000004" as="targetPoint" />
            <Array as="points">
              <mxPoint x="84" y="151" />
              <mxPoint x="165" y="151" />
            </Array>
          </mxGeometry>
        </mxCell>
        <mxCell id="fttJyf-UAv3tfDVttIL6-2" value="" style="edgeStyle=orthogonalEdgeStyle;rounded=0;orthogonalLoop=1;jettySize=auto;html=1;" edge="1" parent="IVBSxfab5nylGK4fCPFY-2" source="IVBSxfab5nylGK4fCPFY-44" target="fttJyf-UAv3tfDVttIL6-1">
          <mxGeometry relative="1" as="geometry">
            <mxPoint x="553" y="270" as="sourcePoint" />
            <mxPoint x="488" y="330" as="targetPoint" />
            <Array as="points">
              <mxPoint x="146" y="120" />
              <mxPoint x="146" y="120" />
            </Array>
          </mxGeometry>
        </mxCell>
        <mxCell id="IVBSxfab5nylGK4fCPFY-30" value="" style="group" parent="1" vertex="1" connectable="0">
          <mxGeometry x="570" y="130" width="110" height="70" as="geometry" />
        </mxCell>
        <mxCell id="IVBSxfab5nylGK4fCPFY-31" value="" style="whiteSpace=wrap;html=1;aspect=fixed;" parent="IVBSxfab5nylGK4fCPFY-30" vertex="1">
          <mxGeometry width="70" height="70" as="geometry" />
        </mxCell>
        <mxCell id="IVBSxfab5nylGK4fCPFY-32" value="" style="sketch=0;pointerEvents=1;shadow=0;dashed=0;html=1;strokeColor=none;fillColor=#505050;labelPosition=center;verticalLabelPosition=bottom;verticalAlign=top;outlineConnect=0;align=center;shape=mxgraph.office.concepts.address_book;" parent="IVBSxfab5nylGK4fCPFY-30" vertex="1">
          <mxGeometry x="15" y="43" width="40" height="27" as="geometry" />
        </mxCell>
        <mxCell id="IVBSxfab5nylGK4fCPFY-33" value="" style="shape=image;html=1;verticalAlign=top;verticalLabelPosition=bottom;labelBackgroundColor=#ffffff;imageAspect=0;aspect=fixed;image=https://cdn4.iconfinder.com/data/icons/spirit20/file-zip.png" parent="IVBSxfab5nylGK4fCPFY-30" vertex="1">
          <mxGeometry x="30" y="-37" width="80" height="80" as="geometry" />
        </mxCell>
        <mxCell id="IVBSxfab5nylGK4fCPFY-34" value="" style="sketch=0;pointerEvents=1;shadow=0;dashed=0;html=1;strokeColor=none;fillColor=#505050;labelPosition=center;verticalLabelPosition=bottom;verticalAlign=top;outlineConnect=0;align=center;shape=mxgraph.office.concepts.address_book;" parent="IVBSxfab5nylGK4fCPFY-30" vertex="1">
          <mxGeometry x="15" y="10" width="40" height="27" as="geometry" />
        </mxCell>
        <mxCell id="IVBSxfab5nylGK4fCPFY-37" style="edgeStyle=orthogonalEdgeStyle;rounded=0;orthogonalLoop=1;jettySize=auto;html=1;" parent="1" source="IVBSxfab5nylGK4fCPFY-38" target="IVBSxfab5nylGK4fCPFY-39" edge="1">
          <mxGeometry relative="1" as="geometry" />
        </mxCell>
        <mxCell id="IVBSxfab5nylGK4fCPFY-39" value="" style="sketch=0;pointerEvents=1;shadow=0;dashed=0;html=1;strokeColor=none;fillColor=#505050;labelPosition=center;verticalLabelPosition=bottom;verticalAlign=top;outlineConnect=0;align=center;shape=mxgraph.office.communications.offline_address_book;" parent="1" vertex="1">
          <mxGeometry x="124.5" y="250" width="55" height="40" as="geometry" />
        </mxCell>
        <mxCell id="IVBSxfab5nylGK4fCPFY-41" style="edgeStyle=orthogonalEdgeStyle;rounded=0;orthogonalLoop=1;jettySize=auto;html=1;entryX=0.45;entryY=0.436;entryDx=0;entryDy=0;entryPerimeter=0;" parent="1" source="IVBSxfab5nylGK4fCPFY-39" edge="1">
          <mxGeometry relative="1" as="geometry">
            <mxPoint x="152" y="339" as="targetPoint" />
          </mxGeometry>
        </mxCell>
        <mxCell id="IVBSxfab5nylGK4fCPFY-52" value="" style="group" parent="1" vertex="1" connectable="0">
          <mxGeometry x="260" y="130" width="110" height="70" as="geometry" />
        </mxCell>
        <mxCell id="IVBSxfab5nylGK4fCPFY-53" value="" style="whiteSpace=wrap;html=1;aspect=fixed;" parent="IVBSxfab5nylGK4fCPFY-52" vertex="1">
          <mxGeometry width="70" height="70" as="geometry" />
        </mxCell>
        <mxCell id="IVBSxfab5nylGK4fCPFY-54" value="" style="sketch=0;pointerEvents=1;shadow=0;dashed=0;html=1;strokeColor=none;fillColor=#505050;labelPosition=center;verticalLabelPosition=bottom;verticalAlign=top;outlineConnect=0;align=center;shape=mxgraph.office.concepts.address_book;" parent="IVBSxfab5nylGK4fCPFY-52" vertex="1">
          <mxGeometry x="15" y="43" width="40" height="27" as="geometry" />
        </mxCell>
        <mxCell id="IVBSxfab5nylGK4fCPFY-56" value="" style="sketch=0;pointerEvents=1;shadow=0;dashed=0;html=1;strokeColor=none;fillColor=#505050;labelPosition=center;verticalLabelPosition=bottom;verticalAlign=top;outlineConnect=0;align=center;shape=mxgraph.office.concepts.address_book;" parent="IVBSxfab5nylGK4fCPFY-52" vertex="1">
          <mxGeometry x="15" y="10" width="40" height="27" as="geometry" />
        </mxCell>
        <mxCell id="IVBSxfab5nylGK4fCPFY-55" value="" style="shape=image;html=1;verticalAlign=top;verticalLabelPosition=bottom;labelBackgroundColor=#ffffff;imageAspect=0;aspect=fixed;image=https://cdn4.iconfinder.com/data/icons/spirit20/file-zip.png" parent="IVBSxfab5nylGK4fCPFY-52" vertex="1">
          <mxGeometry x="30" y="-37" width="80" height="80" as="geometry" />
        </mxCell>
        <mxCell id="IVBSxfab5nylGK4fCPFY-59" style="edgeStyle=orthogonalEdgeStyle;rounded=0;orthogonalLoop=1;jettySize=auto;html=1;entryX=0.754;entryY=0.922;entryDx=0;entryDy=0;entryPerimeter=0;" parent="1" source="IVBSxfab5nylGK4fCPFY-31" target="IVBSxfab5nylGK4fCPFY-29" edge="1">
          <mxGeometry relative="1" as="geometry" />
        </mxCell>
        <mxCell id="IVBSxfab5nylGK4fCPFY-63" value="&lt;font style=&quot;font-size: 18px;&quot;&gt;Carga Inicial de Imagens&lt;/font&gt;" style="text;html=1;align=center;verticalAlign=middle;resizable=0;points=[];autosize=1;strokeColor=none;fillColor=none;" parent="1" vertex="1">
          <mxGeometry x="270" y="30" width="220" height="40" as="geometry" />
        </mxCell>
        <UserObject label="&lt;font style=&quot;font-size: 8px;&quot;&gt;! No FileSystem local da API / GIT ! é isso ?&lt;/font&gt;" placeholders="1" name="Variable" id="fttJyf-UAv3tfDVttIL6-9">
          <mxCell style="text;html=1;strokeColor=none;fillColor=none;align=center;verticalAlign=middle;whiteSpace=wrap;overflow=hidden;" vertex="1" parent="1">
            <mxGeometry x="90" y="400" width="60" height="50" as="geometry" />
          </mxCell>
        </UserObject>
        <UserObject label="&lt;font style=&quot;font-size: 6px;&quot;&gt;Rotina Burra de Importação . Grande chance dar problema.&lt;/font&gt;" placeholders="1" name="Variable" id="fttJyf-UAv3tfDVttIL6-10">
          <mxCell style="text;html=1;strokeColor=none;fillColor=none;align=center;verticalAlign=middle;whiteSpace=wrap;overflow=hidden;" vertex="1" parent="1">
            <mxGeometry x="199" y="400" width="115" height="44.68" as="geometry" />
          </mxCell>
        </UserObject>
        <mxCell id="fttJyf-UAv3tfDVttIL6-11" value="" style="shape=image;verticalLabelPosition=bottom;labelBackgroundColor=default;verticalAlign=top;aspect=fixed;imageAspect=0;image=data:image/png,iVBORw0KGgoAAAANSUhEUgAAAFYAAADLCAYAAAD0rmRqAAAgAElEQVR4XlS9B7Rl51kluE+658Z3X6yqV7lUUpVSSbKCbUmWbDmBbTnI2ETjxm2CA2kGutcaZroHGGDomTV0N900zABmTc8Axm7aQJOxsQ22HCRZWaVQuV69nG4++cza+ztPZl7p6aVzzz1n/9+/v/2F/z/O9td/pwRcwClRoIRTOgBK+yyBAvwogbwAnAIo+Xt+FvrC1yDP7bg81++LskBelHCKHChyZDqdvTbT70qkKPT3PC916rJI9XoelpUlipznsM8iK5AjRZY5yHm+PNNnUpQo8xRJVqBMC0zyDHGWosh4uTwuR1Hw00HK99E92X16vFQHSPj93n07JTIAvlMCjofAceDBReG4cFDCdwHXcQDPBf/BdRA4RMeBAxe5yxt14fHlO9/8vbJ0+ULeHXRIodOUcAUS3zRHwTfmXfOydGgJlzcO4p2hKPiXDE5OwHkzpQAui+qzJKBALtBzfoO8JOi5AcHX5dXPBcHOUPKYvNBgZKWDMs/02jLLkOh9MsRpgSzNMeZAZBnyPEec50h5YRq0HHlZItV5HbhmDTB4CSTv0wHx4j26tDGHYHvwnBKu46F0iYcD3+XviV1AbOHxRS6NxtUAQMDy2BxO7/H/h69B6RiYHEaHgPAQjq5ToqT1CRgeUQokYcyvpQun5A3L7FDSQkqzxozHEwiCYmZUgcabJHAFEhQo8gxFViKrQKTlJhlfR2x4LH9foshyJGUOJyuQELCiELB5liDmMWmOVOfJkVaDytdlOe+FoDvICRZnDu+zoAk5KAUk71W4AI4rS3QcgunAdVwZkO94cAmu44EjUHM84eMKXx7L2ebIeJz+k39ADAWkgWmT32aNAUxACSKHmsDwQngcb9hAN+shULQOvo5/czUVacdGFwTUodXltCBaKAEtkBaZAC1STl++lhbJQTHrNmAdWWNRgRbnBnRRpMizApOMA8QBscEV0LxuUQKNhTOE12a2mhcO/JLXpimnqUxMCarPL54jS62TBggcDZJWTEvl9zJts9TM4RltMHgUidHpP/WHpVs4KAi7maH40qy34knNfV6UcSqnPi9SFCCqMF4lyASFlqB7IvAEjzclzsw0jQliWYGS8vc5gcqRpWkFBJBqBqSywCKnxRd6nyTNZa2pzplr+mfkYFp/USAiT4sC+DOQcYB5XSSqwmarca0ZEPnfJ/3R8gidpngJz/OIm6Y5udbx+Ddar6PjxbMOf9ZowHVK5KJpcgrgDJ/+dMkXcxpwVAVrNbJl5awEFKGupj+np9CXJScoaK08Qc6fCaRZGfmWIPImCTCtEFkqgFM6IE5p/i5PkKU2vWnBBJHOJtMsIIC0too6+L4VFcRZrgGgpdrf6BwzDYac1av+gXzvVDOQ1+UhdQQvHBlVIcvzK6A40/mz6zrI4SF0gZrrovAIoQeHVOEBgay1hE+LrpwYz0oDdAbPfFazXUgV5FkDU3wpo+ab2/QmkARRwJtJVo6KnEuweUwhBySHRWuVRdKSE7NOWVhlteJE0gd/ZyDx56JMkGcuUh4jpUArraw4MyWRlfT+9PaFAOb5+HdaLq8nLRxZqICUtdu4E2gaVQ4HqayVnGmA0VI5/QOXd043VcJzyasuGh4dG2nBAOdr6JfICEYSdIA2K/jpDJ/5rOzUrJXYVdNf31cgixgqsASefU/rpbXQOvk6Wo2cFsmbHlrWRApIBXae8MYTpCn/RsuqprJUGa3XAOInUSBoJplKlFmBqEyrYwksXwu9htdDlaDjZe1GZrwmGkgqJ0oaMEmVOgX8gu5KMgieS/hpsWa18iGc/vwdrZTT36P8cuHpZ8Go6U+QCTDPK6qUcy4J7Gfs7ALWeFKWx6lSWarYSN6el5vJK9NZ0TLk6QUwp1oKR5KpgJOaE+JNcXpyAHJZaIIkp8Ph9wZikRhAtFxaqQkDs749K+cgc3pzEPcAJFORUggqj+XviGnKa5OIMcmn2xFTSR5AE513LY9uTsv4krTAMbHp7Ts+HJokp71Lr2/alVysv4ubjT6MNggd70kc+9nSuIfgiiGqaW98pM+8NH1KapB+NDAFdqVbCTZ9rKairIyOyriRXltcm2aSUbTaiF8TAyPhsdSjJfUnrWuPKiCHJE9PzUunSWulHuagyGFC5+QA2szhMTYdqV3lJnRPJqc4MwkNjZfWKYslETjmZyS9KtlFecVjPJfTn1RhAHJA9qjDIS3ofHoXJJRbxKv/9B/JhgUOLVKWS6vNBKsAJljiYJMyKFKbnrJUoweLcHisOTdOXVmpwCeHloiz2Li0ooKEYPJnTmuaGq2d07tkoMHfkVc5IJBq4GDKikW1FpVxYCTRqmiPA8PBkI/g9YgOgPTVQIDzj0DR+Dw56IBOpwKTHEowfcovOTEPjsdjFDkIWFprpuOMX/V7WqvjyDg4bZz+U39QuXtey7c9v3EqGZ8XmMmN6Weq0j3e098qlSCNWXGqrMacmpxMQieTSKfS0cTkWQIvjuVULxAhEYByfhU3mzMiWMbpCcHSgJWIXqWDEpH43SQWB3cvqOBY8TqpUgW0JBXxI8AuCrdETYERgeYA0HGRM00FkCYIPOmA052WKeBdunoXjtSEp4HJZO18P7tup/etPyhpefJcvKDKSs06bQrueXybajyWlmgOxSyb052yiLrUIitHOpVvYjG7HEqSYUS5RQtWMEBrzZAlnLq04lKvi6tpzYGUt69mBcG0S+EgctqZ5nU5CHJSFl5T48phyVh4HQzTOX3t/5z6It1Kg1IF0EEFJFMi7wKBrNkOo1Pj72ih5rTMcmX5itpcBRpkWbONEs7u4//ZzJQjKrInHewpgEpaaehN+pASpEur6U8QKfZlLRmdj/Gs8S+ndomY4BGUhJQQCyCeizxL9cbjOACSV1ITDrK9yIuDlnriYVliRQ+8ZJ6TepZjLYelgYeiLupTHkQHJguSsyLHmkXSkyv58k+mvytJxQCBlkkAPXNMBI0HuoVA5T+FtRXwHCjOcVP7TBQVcLYf+9QempVTIii8KbNUA3hvuhNkfm8OjICSD2mtLkGlHOLU1jTM5EHEkbRCWrBogLKKVkvuNIskQHasOTD7njOA2NAaKaeIhgUMFnWZMI3k6Hi9pj4Y+ip8pVJV0ocO1G5YjFgWiq6KkhNYwlbWRzUQMP6nc6LXV+jqmoVX/KuMVhUMSF6JGsjHJEj72MPG2frab5eyPr4NLZXAVtqQFmtyhZ8GNmNARi3UqZbgMNlFoCj8y4SDlOuG+TpOe8ohTn0CLK+epQIhknuvpJIohBRgQt/40yQWB5r8yvcTBWnqG+g8jrKNYBJ8ozWzXH4wBSkjKF3kTq6UnixSyRfpLEu4KPR3EfJvmvbMFRivKqqqQlmGvrJhUQA/aLmlIjAOrjlRB87GV35LVECLtBi/slY5HwPUQlZeb6qbUqZJop+gVFRA+cPXSPDT4RB4A4bTm4DJalOCQstmgGBkb4kXUwFygK9OYRovpzunV4o4NX1JUDgg9P58H7Nqziz+uuJWAqwgoIoES35vgQ85s3QLi/kdR46q9Gh/nPou6h5fxWDAUjMENZCFWvqQ098SMBJUlSx1dM3ChJJu9cu/XirME3ByQ9KsZj12w3RYLmUR2YBsQidVWXBK0Cibcsb/tOCkUgdmzQoA5Nho0aQBUwwEmdbLgSOgZKm4cM2JcVZkKRL4CIMmAt/DhIDQ8WU5ojjGOB1rqtZKB5M0QZynslrlBERdhJ+0xmyTrlqw0JLJk8yl0kItqU1pVSJgQCCvXzkzpguNYFGrjuOV8v8KZ/le1Ev6avllqRO+9/IXfo1zSw7A+MG4VKOsqVcFv7QY/UxgGNkQFHp38mGGlF6eICvyIv+Zl09SCxKkZSWTyK3Gwyb8CzhOoIujVs1zH+M413ERHMRpqkxTp9lE0yPnAWk0wmRCJxhjsTut69nsbyigoIUwx2v8SqdFi+MMsCQMpzGtlcKewO0BS54lx/L3ckhVJks+i7ZZOSlxsobIHJ+ZrGscT2XCIIdUcOVvf7W06b9HATRlXl8lyCnQKm/PbBOnOjmRlkOPzOwUI6ky4bQ0Aa/zSW7xdcaftF7qVTovfuyOSoziCPWwhlqtgXGUYTdJMRonloj3QymBMAhFMZ5ywRlc14cnWsgwiCMsTE1hqh4iHu9gZzxBzdjTZot8ciUhzV7lcCTs5aQYVZl2pRwgUKoSKMlijsonhbjUwITXHBgHqsre6oPOVHjJ75tROhf/4pfKPSVAC5M3ZUzPy9A0tgw9vTvLUuQ1RksEWQCnzJlWOpZZKUYduaNpX5YJImlTkzzjtJTXHTshrqzvKvb2aw0MxhMUWYow6GAcj1APfIzSFEEJdKdnlCuoex58z8VwkqDFnJ1XYGcwRpQWmO7UQTW9tb0Nr8zg+57oJs1iyS6D1JHTpaAXT1cRGOmAKoHJFlYLiBejLMEoTUvLpVXLTYmr+VqvdJg1UXaMPof3R7mqeh11/Cuf+3napQIAeWyObpXlp8NQWk9Sic7G5BOtjg6JFpoxXOLvRQ8sS9DSCXilJCTirWTCVF3h1rHcjzQTWrUGdicjND1PmrYVBhgnnPouOo2GzhtnGRwnR61WRz0IEEUxavUA9bCO5a0ekiRRBWBqehZb/QEG/Q10W3WUaYbJqGf5UaVC6ZjMdnM6KNqrMjHMv1ZhrEouvEpfHGyA8vekhIpb5Q04QG41E8xPKLMlPW0O23n+sz9XKnyUNDNPTn2Z5qnkFi2CIl/pPVFBYaEp8wWVPlXYqySJ6Us5LulfoxR+z1GE38T6IMEoSjHTncGlpRXkaYxmu4tJPEGcZBiMx1jstNBod5Tuj0Zj+EGowWoT0FqIWlBDo15DMk5Qq7kqJCq4rNewut1HjWFF3MMkGpj10FYEiRmh+FVVVVIAnZY5s1K5V1ML0gNmwAoaapXjMrllgaoCgsIVdRFQ4igMyO2P/cHPSNdIc1Z1IXImi3SSTqQFhaQmqUgF5E86Goa04lTFmaY1+VWRjjjHRazoDJhuNTFEC2vbu5ipt7G0tYNrq6vYHU10kVONGnqjFIGb49j+WTmANInQG02kRqgAwhqdWAOzrabA6ky1cHTfPGqeg8trOypTl56D7eEQvusjSQaIxj1zkCbvlcEingwACJ+4VrkAy2pJTpEaKv2qQ6hWq5wCv+bMH+wVXeW4eNv0J1bqocpyHv2dT5QkXxIvw9MspcVllk1KmFg2IU+NK48uMMmp9NoE2VEZnMkQ8otZp40nAaUedoMQs4tHsb07xngSYWVjEy9dXRVX98eRgGk2a6hlGWqehzKo6UbjOMMwMn7nVOPfmrUQXmAacma6if3Ts2jU67q+cRxjbq6LyWCEiHYb+tjZvAqkE5vKVThLJWCZfysOSjpV3p5WymQNLZQ/Uxmo/M0LUD5BaSgNkyxWjl5kIzo1o3Lg/PVvfLQ0RVAipZVWlU7qQiamE4l7a4iI6eWlR8mbHAxauQOvStmxrCyLJ8gcaloyStTqLbjtefobbOzs4tkXXpby8H0XcRzjwPSUrGI8HKH0PCRliYbvox+nGETkeVqyq2TK7FTDwllO/sDD7FQbZZKj2fQRJcCBhVkcXJzDaDBG6tZxZXsd7mjLwuEKvFoVSWm6u5bsZqWVFECnxMYLyS/2C8hqq6iflCF8LWiwNACrL+ZbWPfj/ZMWnP/6f3zIgOU035NF5NBKn1oipUAk51U5OUVMFWFrOlgoJ6cliaN8BTJk8PwmhnmAheku9k+18Py5C7J21sOmmw10m3VVDza3d7EzHKPdaWJjd6jBZQJ7d2ylHHrtsBZgodtEw/XRrIcoPA+DcSRFQOuOk1RA33rqBA4fmMelpXWsDSaYjLbgl5FVDDS7TSqxhiWwKy7lFHdVlaUTIzUYePpgmpFGVA0OuVZnkSUzC2D+RVxLYD/9yx+Q8yJ49PqK6wmyavUlXPKtfmYsniNQrtMyOOIWETjPb4gWjuk5cbzno9mZw/Ygxk0HphEPR0h8H57vw4lGaLdDjMY5NneHWN7aQbPuww9qYKw7TnIMVQ5PMRil6KX01kC75qEWBAhrvoKGbruuG7m63scgimRpB6en8fo7T6PulLi03se1rU2U2RA+r5Vlalq7nJFYU0mUQvJrLygwiaayjXooLBEuqrDUS1Uu588WNHByKo1Z4eL89v/4cGldKPTw9pVSiak30sAep8o/VTG5skdKLpXwlRBXsFZ5X+YcGDfnaDe7cJvTyCYD3H58P+LYSiijUYLAybA+GmASl4iyEpPBEEEYqImCljJMc2wPY6kKNk/QefUnqdWqPAeB5yIMAt1It1G3dijXw6TqjLn11HG85sicpvpzyyNcWL0KtxiaoyrpmDidcwGrjIIANMemKV9ZtmpapnjNQveUAl2uWrNoUBYYMDFEAyVtOP/up95aElDGtAw/6SjUJFFYs1nCac8iIUdNCZmqVs+cqWaJ8R29o/Lq5B1eRkFtuQ+LC3NoYoLZTl0h4cbuGJdXetjo9zBIErTqDfiuh5lWiAkdVZyg02lIkq3ujhWZdeseBkwxZgmmW3V5436SoRnUsN0bqRLQCms4MjeDceFifXMbQVjDa244rGCi1qjjay9cQFoM4HG6KxMlhpU1cMZbsdvSAQalgam/m41WlmyWzhGgAXAwhACNas9XURX8Lz/yYKn8KVVAlTFiqErtqpqVlJQ5JZMXPC/fhiZvU0PlCzaUKRlhcsR3ArTmFnHfqf3w0oGOnWQOHn/hCgbxWNZIvzrXbkpt7Ou0BQKlEVUIL7rmk+9crI8i0ZTrc2jYjGeJjxbVgOdinTyaTHBifgrj3JdD3OqNcODQfoQOcOTgPPqDHq6srsJzUlmr8lylpf44MHRctGR+zw8rw/DeSQ2kBULKr1YnY9DAA4wBpdOUkLHMXwnnZz98b+kqpjcQVaRTtMQbsDZHZmw435XQ4MhY6VMekl85kox+yIKaNvx90MIt1x3DfacXEI0n2OgP8ezlPl5ZWsbEmgMw36pjttnEIM3hOzlmm6HsZK03kpM8Ot2SNt0cp5p/vu9gqxdhlETo1Grwaz4815eFUG8zSts/28H0VAdpUuDC6oaCgYXZadx+w35sbq/j5UurkmuaVxV9KSnDbAQdFgV/ZcVSv1Xe1QJgS9bwWkISCPsRaLySqzQoK31LOfz0994pEUsrtWTxnkqq4l+ZuZUxzEGaCqBl1v5J5tzevPK6ngfXr+ORN9yBU9cdxlNPnsXTl5aw0c8wjiLVyWbbLVnTOMkQhBTzLImTo3JpTF9vRrHuwQ1cRXy01nHEvljmGR006qH4rj+JFO3EuYO5dohOq63Pa+vrGI4nOL6vi1q7ieuPLuLS1UtY39lG6Pl6jWY1r10VWYJkZXCBu0cFpLmqtsU8A39kfYzHCfJKIZEO6QTVV/HxD9xmcqsKEpThqiIIgUoIq8iFr+a5xLP2npXF8huTLjV9BU4dP4y3vOkerC1v4PGnXsTLV9Yw3Z6GHwDNmqPwdHcwRm+QYrZreYBJkuHiel8OlFbArpO5qVAUkiaM9ixYYavkVK2GMGQc72JjEKGXpMiTDPu6DbS8AHMLU4hL4MK1TRyZbeKGEwfRz1y0gggvX7iIMAwNVFkaA2KNlQZTMRozWtKx/KrsgaQWwaSmZvKFro8zVf9yK+NwkBTS/uj7bim/LXIt+uKJ5O1E2WbatFiCLVBtnCSgCSb/7ZE8OTGsuXjj6+/A3MI+PP/iOZx75SKajRDzrQ5SBxgOx8psMfHCjBLPnSQpenGKMS3WcbDTi9AKfQQ+EKUlxvT21NgAOvWaBQlFiU6zhhgOognTiLFK0e1miAMzTUw1Q+xEGS5t9PC2O0/CbbTw1PnLmGvk2BkMldT26D/odMWhvDPKL7t3ObmKEpQ/kPOiGOBAMOIkD1sEpn8l6cVKNc6PvfuWMuXlypSNiAmUOumqqS1S0R/NU1KQ82J8OiyNsk0Thn7MmV53aB9e/7o7UDgetlZWcOn8NenPeuhjdTdCEmcqe8x36spzrvZG2NoZY5RkmJ8OFRT0JzmagStwt0fs3E5kySPysceIrcBsJ8BMvY7cIQXU0WrUdGVX1kZohi6mO03ccdNR/PXXX0ZUFHjtXTfiysouppsplpeX4XlUtkYxjLgEm/K0KswIWEaQsuaKY2nVDIkVWDBXyzEw0xJGlhB34Xz04RtLhpB7oOkE4hPLN1r1x0I5gS4gLXzjtzyhZAfbGU0j4G1vfj3CZhszzSZ2trdw7eoVxKMIrUaA1d4EUZSjEXjSxZOkwDBOMYxYTwNqNUftmFQnITVn4WKYxLKsQZwiQok4sWua69RQD9isZhn++akGZlqM5CAF0RvFWJipo9Gs49lX1nHd9Qu4/sRJfOvZs1jfXELoE1iCZjNWPkK+qUoT8gYLS3qbu2M0RnDJmca7BEB0yX8VXytc/vA7bhTo5A9eHUdEI8O6D18kh88XWqJBI8ssUvVP31VpN45Yux7igYfux1R3BuWwj/FogJXVDWyubWNuroVrWyM5SVYAtvsj05NqinJUvwrrLsaRVR0cHxiNLaxmjoIczAiQJaJ2w8dityUu5sD040wR1L6pFo7s76LZCrG2w0R4isP7ZrHvwAyWNoaYuAGuXltHiF0RmjoQda8GrDkwwSRgdY+q6tJh2WwV6DrCcKFzM6OzPK3m+Efecbq05ARPya9WkuCf+WK1aEhq2Qt0Qolscot5Uv7MNyP/NcI6rrv5NM7cfBo7y6s4f/4c1jd6iKJU4SezXbzYKGGYnCrxw2iIxbxWLRBFbO8w/netAzFLMUk4Q6zU3Y9SJaq7rRCz9RCdIFAouTNKLZVZlphph5jthtgkTzca2BkmuOvWI0jh4aX1IdZ7OzjQyNBlNoZOXRVaGg3XU5hx0YxoVL4WbtDmzCo5eARIlinNbi33OpbRhejZgfORd57eYxf93zrpFGdYPFy155huNru1mpD9ROvlyNroAo1mC7e89i4cPnEMl585ixdfOo/xeIzheIRmvW6FSb5OFVJrHFYSmpo5z3TucWwxNwFl0pwOlcfGqigUCAMX9dCTtU83qA58OTN2BG70J8icFHFC31ZoAK7tDDEz08XhA3O4sLKLpZ0ebtjXwPVzDWuW86zUQqOhYdnUpiq3oEHA0iIVSNgAyGkr90iLNgXB4+XURAXvvJFVHAFnxGuyg9ZHkAkWeU7EXP2OB0jPKTlsSQwCQg+fuh6c/UfxpnvuwLeeehJLV1bRdDKsrfcQ1ANEibVstus1hX9h4Gt6ccoSNEZ47EL0PafKU5RyYkwO8e+MxsiNvk9Zw0qrg1rNQmL2HfTHiSK5YZQpmT03Vcf51QEGeY6F+SkkpY80TZElPTxwcp/lAjxytoEVSJzSpXF6644NE1mtJcCZ/+SUJ/3xq2kCw5AzVwHCRx4+LcTEqzJKi7j2kg/84AvY6UF5Jdvmf1WYR+untZLUGzUPq4MI5b4j+N53vxNf/PwXsLJ8DfFoqOSIx5ytx1xrqCaJ3SjWrEiiQp0zvHDlI1JKKh9JymYMvsZBnOQINJosaJaoeS5a9Zq8f7NW02u3exH8wEPIZLkHpGmJ2W5TUd/FXoy89HDshkN43zvfhnNPvYStS99CEDLZLQKUvyDlyXio60laCtUtxcj7ZaKbvQY0JhosoaW1E1rjB7N658cevkm2KCcl+cREgk17Zaw0FkbkgpVAyrq5zokVzkK1I/bqh56D9d4YNz3wFrz/4Xfg6998DH/13/4Ka2trCgKKzEUzcDDbbSCOcqxvj6Q9xymZ3KqkZAp+dkIWvIljifEowSjO0Gr4isXpwFiAnGrWlOAmwL1ehJXBBJ16gE6jBs9n4wbzCTV0pup49MIWxmmKH3j32/HJT/4UplpN/OHv/Tt85UufR6tZVxJKTkmZLwNW7CfvU/GrZimNyhXAe06NgFp1gkdZs4fz8ffeaqU2LeywU+0FAYzzyIAye/78/7NUC+/4aWl2F50wwCM//NO4/u63Y/PaBTz55Jfwd3/1NxhurasPlQEBY2taSG8QYRTHyqAx90qLqPtALCoo0fI9cSfff22L4KeaEZwZBL4euJip+2iENYQ1B9ujBBuDRAZAKw6U93WQJAUO7uviWi/WQP3C//SzOHj0KP78v3wGOxtLiHfWFUarAY7RVmFWyfPYXZl25QfzBJqdJVvoCaA5fepazWRau0tH5sD5yUduq3QVxbAy11Umiye2fiSelzbF+Jg1Io6Q1Y2qMrHrynufOH4Yb37k+7D/5B3oLJzEC499BZ/5/d/AxsoVxINYIekgzlRCiVS2Zls5a1WZAcKqgFNiEqd6H05pUsOIPVtsEuaiNgJfxdst38V0q4YgcLWALkqhwWMOg8GCHzjYGsbwyee+j8XFfXj4Ox/EN795Fn/+d1/BqVP7cdO0C5c9EASjytLxhvf6uvhJo1Kh0bGwlh/M4vKayeOcxsq7sVmQM5nIffL9Z0rzdCZ0+Z9KuBXIakygy64cFkNWnlHlYBtSvTE9+2x3Gl8+u4633Hs/PvaTP4nIqeFXfv7n8K2nv4nA9SX+qU97w1Q0U/fNKU0S+mYHzUAN6lY8ZAgtZ2ZNvvUae6p8JFwTlpmKYC6Bzoz5XMo03iwTR7wPUk67EWJjGKMf5+h2Gjhw9CCCIMQ3vnkOhw4dx+rWVZxaKHF8Jqxoz0DkfdFg6LNpsSG/lxUbTdBO1THDXgVVeS040jgIDw/OT3/XmYoB+FurWQlfWbBZLgFVmMZmhqqxQbNfdaJSoW0jDHBuI8dTuyX8NMcn3vMuPPwD78Cv/fpv4YlvPqosFUNSnZuDyOjIsYrEhE4qhyoC8sSVBKNh1mq+ojR+Br6L3XGKySRBLfDQDDyMIhY4C1aBNDC0OHlv31OacWMQ65xT3Tam52Zx6fImLi5t4sjh45ie7SLrXcWNB1HbucQAACAASURBVF20w1AGRZpThVbVWVt7IM5UEMRrNjlFR8PEjBl1pW+rv0m4/YsP3lGa+e/VqyiSrf+UCNCCOEr8SnuilnuVf3iM3oTSpo4/f64H//Aiti6toF26+JlPvB9ZbYRvffEb2O6PsbLdV2BAC3BZjU1zRKn1WImvuKySzQ9Vh3hYCzA31USNyZgC4lgCvjWIVOahtTIi2xwlMoQWs100AUqymodJrL4etMMArW4L6DTx2NcvKZBg7mHx4GGM+zu47WiAowttvafWJAhE09m8T5OSVQDAm1dSai83W/kjOT3+nni5cP7l991FuSuO1d9lpVa/EbBVJMLf7Z1X6k2i2AAm922NgT9/aVeptGg8RhaneM2Jw/jEJ74TT37561jb7GF7PMH69liJ8yAIxLnMx1KzmmS0G2E1g19bzRBzraZRRlaozqW8KxtGkhRRYktGR4k5wabnK4lNrRwG5OcC7cBHdypEo9lA3Ajxta9eEHB8Ozaa8Osdx9s4faSt/jPKON6vpQmta4a0wMY59XkZ+wkD+gMiJuOTZRvIstr/4QfuZtFaIDoF8bauZ7YcyVLZCa18rJ3A/jONyynGacA3HU1cfO7spjpbeC6O+JTr4xf+9Q/gwlPP4tKla8h9Fy9f2cA4LlVl5W4MRU4Py5MVEvsEI2IGy3Ux1aqrPM7+A74/K6XjiKFwjlEUwaMHr/uYjBOMJyn8moPSc7HbT7TIo173MT/VxL5WCL9RwxAeHn38ii0mVgOyBSE3HW7ijuPTSqBz8CzgMYBDJtp5tGdSk416BoJMUPqLqPFY+2BztAPnFz50T8k2ILMV07DSYno9AfUEFB0CWxpZfmCEQrLmBeiVboler8Rfnt3EdpSYZ0WJtuPgxz/0Juysr2J5YxNZ4eLcyhYGEXML5M+aEt7ElWEqVcBOlKI3jJSCnA7Zo8XQlY7KRVDzVc1gaWdnZyhl0m01VPfia8ZRojxCfxyr9ZQ6d3G+jX3NEM1WgCv9BE89vy7fsZc4otHdfqyFmw+2rQGalYSqX5a+xXH9ymnTiCqQNa/pg8x6zYKN26lmxMm/+OF7SpK2SsBVhVWeRPCazKBH5OkYkdmYlKoPafkOrdN1sdNL8RcvbGCX6T+4qkPNeT4+8MAJOEWKczvso0pxbWdUyScHzXYTbd9GvN2sqZcyYqZqGEuCkX7cwEfoyx1oEAMud3fYW5uq45Hd3u1GgEFSCFBy52RUIHALTDXZleijE/pYmGtiEJd48dyOBo+8SXCbbonXnZ7GQjdUXsR4k1UC27qEcDDCohqit2e1gaZAQ2NLlZy4IlJDjAbBn5xf/uevLcl5olg1dLK1xlby8VDlYWnxVXlGVlr1h3J4VbHkTScFvvzSLp5eH+jmVXkNQ7zrzkOAk+Lceh87wwjbEwp1Hl9iut3AdCNQUGBc5iEI6NQy9IYTxByikguFXUk16p84SWy1I8PIskTAvi/f1zoFNZbEVfOyW0g5UEkwWX5ovgPH9/HcuS3sTNhab/7ixvkmbj85pWXy5ElZMflUVku6oHZn1fjbjR3kX6JDAHkNlimwPAJDf1nw//7D95VqzdzrOdJLCLRNE8ZePJRW9SqviHtNjvDGxc8usHQtxV+9soHl8QTTgYcb57t42+sOYTQc4/x6T5WB5d1YXYp3nLoBd911MybDHi5fXIXrOxjnJQajEcbDoYB1alwT4Ii32T0zVQ/EpyxWHpyfQd310Rv0EYa0zCbq9Rpa3Q52hyM88ex57I6GSuBMN2u44dA0avU6vvXiumYFuehgs4b5Q/tw6ECIYrAjPax7lZN20eAqb01temnZoehRzcuWpkJKeIUL/ZT1eokK/u2P3Feq6U1LJ6vMOONmnkRBAwt7puWUqpDGqriFvEOAaT1ugcyfxs7VPq72BoiiBPVOG2+9exHnV9ZwbXOIQZJjeXuMO0/diI9+/MM4cHgR6y+9gnQ8gNsKsbM5wNWla3jhxQvo9wZoddvoDydY3epLerWaNVUV2Ph2x123oDvVxsbyBsaTWJQws28O9W4XozzF33/hcfz1330VSRlhodvA6cVZHD00iydeXsO5i9s4Nd9EozuNraCG2Raw303QFCh2c6HI0jw8Qdb3lkSR8qmbDtB9Gxo2w/UdfdO///gbmPC0UrdaMWmztlZJbMrqQVVy4GiwE48mL7GsfJCdKEti3PKmN+Payz2sPPk0nljexNzhebzz/sP44mPncWV7jHGc4ujCIj75Ex/FqVvvRD5JZB1+6KoKm8cxttevYvnqklYwcsCGwwmanTZqDR/JJFMX4uzcLKbm9iHsduE6vu0Lk7Jbx9WqxygeY2n9Cn7vU3+CR594Wvw636zjxME57KQ5nnxhGc2Gi8PHjsjhUSvPYwQvT6ul9GXlxOjAqoR+tfyI/yl/rBK4bxYsqjRQTTk7BPb+Up2DzBGwW44v40EiXSv98lseE5LwK11no5XDk0RjUjzBmQffCrc7j3/1v/4m1q5u4a33X4+333MSf/zXT2OpP0CZ+Pj4Rz6Ad7z/g3CdhtqAPD9A6ZK9LPVWRCMgi61FNOFq8URFPyaxUQsVkvI1ajJmJ7lMiK2mXJFeII8niCZjjNIhvvjlf8Rv/87nEGEsfXpi/wya3SYuLPfQbNQkzeLcQ72McEObPQFV1MUQuUoNBlzFSBqgnZFHTfUjJR1WOQUrVJGX7avysv/+4w+oocD6OtkKYz2eooCqv4l5A56MI0Z+4bvw9+zXBzMN7A0NfUyfvg0P3nM/PvWZz+Dzjz6GMycP4q5ji/iLr7yIazt93H78GP7nX/pZLCxcJwrxw6Y6WZywpTSkDbbiaX3Pq9BiWzlQxuW0JtuTpchjlGkkSy3SCFkyQjqZIIsjxFmEJJ1geWsd/+l3/wyPP/McHN/B/pk2brpuERu7AwzTAiPuh8KlUGkft8000fRrFmHRa3H2S7dynVh1rwrfbQ3tXqSlZjrCyd8rPW4z2fnNTzxQ7lVFOe1tPYEtleTN81dVa4K4RmZfnYijaF16BSaOh/sefj9uOn0rPvXp38fffP4f8cCdp3F8fhq//6dfw+Z4gkfe9gA+/qMfRsNvwWPXdlCHV2/BC5twPIJWE4gqBmkjiVTC0HEDAUBToARjlbHMI+TxEHkyllWnkxEm/S0MdrcxHPS1ksftePjc3z6Bz/7Jl5EVsRZ93HLjESRwMZlMcG1jF816C5NkjDtmGuiGNYHHlT1Ele5GmS3KK/GtTXM5clqoJaYtQb5XYOXM519/+5NvLCfMCGmNhnV0awEcB4XZ+pL9AxZNEF6+mDUfpZcoiHWjXGLkYerGM7j1+El84bGv4auPP4cPveN+OOMYv/XZLyLNHfz4Rx7Gu97yRjilTWefn802/LADL6jDrdXheoGs1MnGtkCapVovZD3bGF2r5IAiHiId9ZHGE5VaaKGTSQ8bqxtYW1rG1jCCGzh47uI1/NnnH8dgMkGnGeKGEwewO4oxSiM5vXajJV9yvFXiSLut2cpMmbJV6jEwAyXQqujKmVnySQnwvdmryqFJLxqj83/9xBvLvT1VaLlaFMweVRb3qvWpPJFAZPmXQNsYWbmXnJMXCBfmcP2d96C3M8AXHnsS33zuIj7wtruwr9PCpz79RU3h/+5jj+D+O84ogc5TerUQYbOLWrMNz6sreeKHdVMb0Y6mVhFOAU7D5I7UzgRIRyiSEZLJGPEkkTwbTYYYRSNsbO/i6pUNlbiHu0Nc6Y/xjZcuI+EypoaPG47tV9fNhZVtuMya+QEW57toOAlOtuq2IYT0+rdbisSf5FvlGCwDZs6KCNox0gZqqKNhEtiffFOpjRbU6s1V29ZFTF0rCiIl7HW6yFb4YSk9vY0Dta5vOwGmDh/BbLOBP/7yNxVyvu0NZzBTb+KP/vKrmK6H+NiH3o5bT9+AMmWE4qHebKAedhC2pxDU6krGBI0mXOYAJ1souJzIawL1eTheAMdhATtDMekjG24iiUdSGrtbfWzvbKM3GWFnGOPa+hCry1vo93pYHY7xwsU1LRKhJDt2fD8OLHTxxPOXMYkTNBsBGuwQ9wq8ZrGLNutlVbzPlk1TqzTUSrvLaZn8EjOoYpsZVVS9CfzB+dRPPFSOtdLb+mOVKNaWAdYTyxIypzs5lVGF6dZCiQxOF6XrOg280s/xwrUtTLXr2O4NtPzoh7//O/HUExfwx5//Kg7OzODjP/QdOHn4IIq4gFfzreU9aKI1NYsaM/6eg7AzrU7FsreKgp9OE5g+rJU3DBJQb6EYrCC++iJ6u+vSxly7sLO1jZ3RCP1Rgc1xgsHuRMHD6u4Az11aR2+UwGc5p9vCoQMzuLq+hdEgVqGSBUju2nTXwTkcajLpbX0TTC5RwzPRz+luPl8oy7is16IqCsgHcbJXvQm/+xMPlVoCn5faL5BNEtYcYZzLDBZplKdgQjvhqUQBdGyWUa+1p/BCL8Hmbg9+PcROb6BG4rc/dDeeO3sV//DoM2iGNfzkh9+C08ePVrtZmkxr1OroTHX1Or/IEbY6qIV1OINd5P1ryBqz8KYOmtxqdoBWF8XaJWw+9w1cW19RB8wYOQaDHqLdMXYnJbbjQovxxtEE17b6ePbiGgaDieVpG756upIk1vJRGpHqXR5wYq6JM/PT2hmOwl86VWDawg46ajozQVxVXES7lKu6Gysdqbnj//yJN5UsphFEZne0WE7WaybNfR14Ir6B1I82RcwEbFqdqD0/i5VRgfOr64r/t/sRTh9fxHXHDuHsK1fwyvnLKJICP/i+N+DmkyfgN+qiGyZCphpN1Ke6isW5S0ctCNGcmYNfr6Por2vpptNZECVpm1M2xl1bwvbGkgZydzxSTnc0GSOKJhhMcmxHJYYTNiLH2Oj18ez5NSXa2blYq9cwNdXQ1gCDQayaGr0NQZvvhrhjcRbztbqBKK9PJWRlcBYaadm0WNro3mpyQqPWIyVVTJo6v/HJN2m/Aq6P1VL5V3doYxWBOVqpSZNdHCa9gZk+f+f5LqJ6C5fXd+A2atgZROg2mnj3O+5VHf8Lf/84Ll69piXxP/jw63Hi2DEV95hLbdYb6E51tA7M8xrwfa6YmaDenoW/sA/O7jbySR/O9AJcbkIx2kI23EXS5wqZGGNuhFaW6EcjbC6vYHt3E8PEwcYww8bOAEk8xiCJ8dzFDWzsjFS+8Rj6dptyzNEoRpawdV5+HbXAxWuOzOM4gSdoxJG+RUuMzPNTDTGQMI1tHeC0VEZcTE6ps5spgf/0iYdKNhtrlTbB1MJj6+ZWNxAtmS9SP4KtlmFAwL8R4FqzgaVhqvb2ei3AyvYIxw/vw51nbsDG1hBLqxtY39hSHP7d7349Tiwuaql8GDQw1e2i02nDq3fg1zvwONXHA/h5CX92Dk4cc3MCFI2m1dzyCcrROuJxH1FRR1qyuDhBHA+xubqKq5euYWccK6W4vLGL1e1dRJMI55c3sbQ9tu30PBf1Zk3bl3JHJa7HpRPi7KGp3Xyoi5vmp5Udo7WaiCKPMjiw1UFSSRUWVJ384N+ZERRFcEz+wyfeWHLq08JJBWzupeSS1MrJo1UUpMVxtnBB23Pwa15gfn4GL26OcX5lA91miLDRwOH98/BrNeSli93tHnrDvgqMH/yOe3Bs8RBa7RY67a7WedFTFylHuYb69Iz4tcasfacjPuPCvpIBgl83ou+vINrdROxxOecOLrxwEePJNn2aFtH1ogSD3MXuTg9Xltaxs72DcwJ5qO5Fba5LWVfzVT0gsAyFWUKn0zq5MIXX7J+x7himT5XBs1wAcaCjkiKTY+evNPEFrDl6BlcOnN/42BtL206Ja7tYs7ed4bg7UZlZ/xL7qGnye4AqkKhA7s7P4skrm2p6O3poH1pTU4gmBfrV4mPSDKeklzr44HfejeuPHcX0vv0KH5EO4UZDLC9t44Xn1jC1MIO7H7oH+46cgl9vSB1IznBO2m6NyLdXMd5ZQ2+4ja9/+Wn8yV/+A4oiwu03HsSR4wtwWx0k8NAfjHHx8jWsrG0I2LXtoZWqOe19B92ppnbpGI9irXZnrYzNFsfn2rhncU6Of6+uopK4du/MKjpkhFU1xlVUuUeT+hsXi/z6x94o6LUikeBWSzzlzGjTRiWKxrQYolqvoKqD6yL2G3jq6ioWppry0EmSY6rb0WiSb9Io0pL5uWYT3//Oe3DjdScxf+AwfPLRzhpG/XU88+RV/MnfPoPcDfCJj30Adz30IBrdRXi1FkovQJlE2im5yCJkoz6i/gZefOFF/N+f/jz+5rFvYa5Zwy1H9uHWWw7j8MmjqM9MYWd3hCefOodldpRvD7C6OVRag80lrLV0mw1N4GEvkpHwJjnFmWK85/CcSkWyWLEsIzHjT+aseXOW4DZgRcb8UGbQJJnzHz/2oEozclZq8KUDs84+mrZlvipNq0YO2b8iMtahliYpVnpjLHRbCi6oGhhsxCWdU6i86pALkVtNfPdDt+OWUzdg/9Hj2pIp311Fb3kJL7y4hr9//AqevXAVH3r/W/DBH3w/uodPK8SFW0OZxijGAyCfqBV/sL2Or37pG/iP/+9f4uL6Mk4d2ocDsx0s7p/BrWeuw+LRRVxb2cTXvvY8rq6tY2M4wrVNW2gn/8Nra7FTxsW4H2mGykRLVjUC3HtkH1ostcvDWyJfPMQoS77H2lrZl6vGaWX3KkA1Ro5ZrJZ5clk6O0ykDmzvlr2toPQGZrw2spRakiDA8ijBrmpPgZLS+xdmkDkelle3ROzajCxOcWymi/fddwtuuekEjl13UqtWst46di5fw9qoxMpGgj/7y6/i7tuO44d+/MOYOng9nKAJz6uhyFMUo12U6RjcsmKwtYmvfemb+L3/8gUUToabb7kORZyiE7i4/qYjmDkwg/MXVvH4ky9iq7eDzVGM1e0xMu0Ta4mSQJ01FKw2U4ukZDoCnUaA+w7Na7ePvZwJDUxyS8BZKMv74nkYmekPsjY7RqWa//CjbypjbW1ngEbas8CCg5TLPlOr+Zu8sBMTMSYfKPHPbg+xMUn1N7YKLcxNI41SJMz2cFvTNEZ/GOHU4jze9bqbcNvpE7j+9A1oNDtI+9voLa8gcRqigcvPL2nfgtvf9nq0D5yA44aW2eJsGfWRp0MU2QTR7haefvx5vPDSZbitALkHDDb7qpedOLlfwcbF81fxzNnLWO/3sTWZYG2XG0pUmz3QebGczaIndTKNhBuAsO7lO7j/yILWi9GouC44Y09W5bx0LVVIb/sGGS0o4N8DljL11374wZLa1bbSI69yLa1JBi39rLaK0iuqkzCrzpQZY+mLvQmWh2OMJtxhyEG308ZonKLTbWCqWcfG7ghb6zs4ur+Ld77mRtx900lcd/oGNDvTKLhdSa+HjB3cca71CkGtiYXT16MxtwjXq8MJQk3HYthT7iBN+oh7uzh//hIuX13GOI8xGKQYTxLsPzCNhYVpycGrS2t4+qXLWNnYxeYkxnJvjFj9Ctxll70QVEAmJfkf1RWrBuxhuPfoPA60m9qfgYmVvVoggxRSqnp4ibO63Q10HkOOFhXQ6f2bj9xfkl+1ca7kFqe+AfptBWC8wdGi3GA3Hc/CaGkrjvDM6g42diL1S9UbgU5M62ET22QcIUpSnFyYxttvvx533HAI1x87gc7cPDy/JhmX9gcYru5g1B+gPT+N7pEjqO87rFytE9SViy2jIfLRLrKoj+HuFq6cu4Rzr1zGyu6u9pyd2z+NxUPzqIcBkjTF1ZVNPPvyZVxd3cL2JKqApWOwxgvF/tz4ghtVUGqJZtkU7eKBE/sx265p5gpIOS7evrWhSr9WRiZcaMGyXg6AKV/n5z/0Wq63kKdnuEjzZ/qQDsicZbWGlq/T6Fr6jvTE8sUoLfCNq+tY3hpjutWAX2cS2boHHd9Fzv6prMSp/V287bbrcNupIzjKLNj0HII6M1kBsjTGaHsX6WgEv91Aa9+iLNZvdOCEbeXWiniMYtxDOt5BPNzB1QtXcfHSVWztDhCw2jrTxVSzJR+TZpGc1gvnVnBxdR0r4wib/QmG7BurWfI+jS3bT2BZIrcpXGCmGeAt1y2q4U5aXpEmjc4qKQamBUx8rYxO1mw+SEjRef3c99zN12kDXa4d5pF8EWv9EsIVpJYy4Ydlzln34uIGCuIn17ZxdrmH6ammQtxEEqtQ1kgptjTHoek2HrrpCO699SROXnccnZlZhbHK52pbEu6VyDKMA7/dRTg1C68xpcXOHNg8naCcDJCNe0jGA2xtbGB9exNFFCtX2/CscS4tEkzAxpBtPP/KMs4trWFtNMZmb6LVjV6NCZUS8YR1shJOwDK/UQMt6dhMC/ce3ae0YVQ5qL3gKC+YRtzbSNPaA1gjFMgMDqocmCz6v3/kztKS3HYS/o8Q8s2NLZgtZ6XAOlAMUE4bKyqyo4UV2MeWN7WHIUNGZt6532EYugjDmmLyhak63n7TMbzhzGkcu+E6dKZnERQe3JxLkTwUTN1V0YvLPQxaM1qiqYiL4GcJyniickwy6iHhfgf9npyjmznwqLsze4hP7GXYGOzi+fPX8NKldVzZ6WO1N1RkVnKzM+4dNqH9ObJWVgx0b16Ju/bP45b909p9idYoXGTONtF5fXRc/CoHr2lN9KvMlpybA+cn3nNbyVShEjD6A++v6jEVlzDJZeUIcoBy/2xIIB2wcOo62JmQDtawO2JF1bwnOTus1dCo+YhGCbotH4/cfQoP3XUGB48cQ6fZRsBuFHqBIEDhc0GGoxt3gwbc9pT2k6EGYnpS04obAMVj5FEf2aiHlItGuPI7sqeFEAk9Q8HNsTIc4OylVTx7cQkXlzdxca0nVUCZxd6vjCuY2fTGiMuygzKS+44t4PhsS3s20vLkbzi1q2dE2PaJBNd0PZ2WGaThpzlNVfCj77hFFruX1Ob1BSVbFAmgLRiuTFReX5vN6HtLBFML8o2/sbSKpZ0Rag6XF5XqE2AmqTMVqB+AnPa9992I9z/0WhzYt4h20FApma2RBT0/F2MEAZwggFtvw6m3RSOszqqVTCbDHeuYkZogHw+RphMkwwmyaAS3ckRKeri5do174eI1PHN+Cc9fWsUL17bFv5RTXIfL+1RPVs2zfbnLXCXyh65bxEIn1AaY3CHejNGOZ+8wf5GQELj9gDSxDQADB9GrMC7hfOgtp0q3emoQf0FTFd1UnpPTnUbF7M+ete415XLxBPuq2D91cWuIx5Y2LVLzHRSxhcntlofA8zHsJfjue2/Eh995H+an96Hp1+H5IZzAV32f2rJkgjtswg2aVdRlnYaak1X7PPdALDI+2WOCLEmQjUeIx0O4bJJjNcCjBMrQ293F2fNX8K1zV3D2yjpeWt9RHy3vP2PNqdqeqhZ6sjAqo4NTId54YlG+QY68kmPqFZY62tt1c2/DIUtI0ZJZHZeLMmjhfOihG5gzkIVKMcg9mbMi2FpzYF5L1imKqLYEpfBjjpPLkLim6svnV7A2jLWsnmNEyyCFNDs+++LwQ296Dd79hjsx05lBvT5liy48HxkTLBy4sKUeAzeowWFlVnO0yv9yS0A6k4xfaUFcDhqr7B2x2hCzzFJqw0kmR4b9Pl6+eAWPnb2Ei8sbWB+PcH5lRx2JlGe8By7+4EDQ5BiS3rE4g9sOzCiqFK1QIREnWedeGtXSg9oXt1qvwZuVg6VuUL8sF9A9dFoGTKTlwUUTlumh6yKQJkbMKZEZuNqaUQqtmi05jPs5jZ64toXnl3ekZ8m/Ea+KHTQtHyfnZ/CJRx7ATQcPYbo9g6DRht8IUfhcXkQH5sMNG0q8OH4FrAaSG/eUiuLUayDloHkpJWP9BNuIRwPtWBeGTAs6GI1HuHJtBc+8eBUvL29ilIzx7MVVrGwMK6dlCRlWZblrU6fh4/XHFnC4Q3lnVkleVZBUJZ4og2mlclAsttKelUshZtUx7I4ksD/21htt/1jOcplmZZ762ZYz0mMq3caRVNOGdYGIo6rO55rnY2l7gn+4tKIL0xIlTqXCkQD/4IN34H0P3oXpRhOznWkErTZAixWPcYRqcBsdePWmAg8BW/EVB0eLm7mhulaF2KByujJ7FvU3Ee1uo0hsnZcXssN8gqX1TbxycQnnVrex07fa10aPiRxKp1wt+PQb3Evmtv1dvObovPkPyigZIsN621bQQLUcNVGh0zJGsYhBKqHC0ZYjfedN+okVR4JI8MWy6kOyVJrkF29SSx75C6suqjm3AtbzAuxGCb58fhm9caKpxlYbrjrc123hX3z0XTjVmdWqwZnZeXiNNkpJLDoOD26N7ewddcfIgamszIqnZpp0LucwN6PUXoM+MaZ3nyAaDBSNpeMJnDLVdiNREmN5dRPnl1ZxaW0H6/0Bnr68gs3eWJVZ7uFY86s7cxy85br9ODHTNT0v66NTtsiT6xzonFiy0mbFFQXw1bRgBhLaeoCWrBlOHfvwLQLd4l7jGjMJI2HRAf8vdWAalk5NW4Mq/KIUM87ltPj65Q28stkTHxPafpTijqMH8a9++nsRjnK1vs/MzSGoNbQBmcwevjXIyXE14IShugipCHQ5spTErFbzThG+iotUCBFl13CgNbu5nhTC7QRTbG5s4/LKJpZ2+tjsD/DNFy9gZXsAt8Zrs45UOqhjs008dGJRFswZRBxYHKR10jmRDiwaJbdbAEXr1M4klSowx2+TnR/Oz73ntpIjwz/YSFV0oCsnEVdb0WvbOjYCkw6MNHyuUmEqruJa9hk8u7yDxxkssG7luEjjFB9+93346A++H+uvXNNyzO70tPoESMSOH+i8XtiAG7bgE1Q/1PZ9BPZVRSCtzVZNy+LToRmwEbLxAJPRAOPRSGvJ2MvFlY+9/gDXtnax1R/h6tYO/uHJl7CxM9RiZ90mAXKA+48v4K7FGUzY2qQ6FymM4FmERSqghTJfbfkT0+kaYh5XJWJ4XRow/vvIXAAAIABJREFUIvgLj9xeMkHN6+co2DsKO70JNRxRZmOROhBpnVrkYAGC2jr1yYczAC+tj/Ho1TVMImbLrGb17gdvxT/7nrcj3eTOcAFmp62v1fFqcOs1ARmE1iBHRcAaF9WCLpGWwsHkputMu1Ed6EGV3LKaz6+JkU0ihbnjZIyc1pqm6I1GGI64/GkXG8MBLqxs4StPvYzd8US8SsvbUwbvOn0Ih7pNW9bPsopmMO/ZKN0Kq1YAYP8tGwgpVDirRVOVyNLs4nfE7lc/8Bp1Gyo1VgFrk81aZngUX2aTj5b67Q3DCSrXePFn9maRsy5sjfCPl9YwmPCJc1zanmOx08Y//8CDuO34CYRegBbXblFZ1Jpw66HADepTcMMaCodL5Nndx72EOHx2dxr4NAFS7gPOEUvhUXrlbKBLkMdschtpp2Y+r2Zzp4+dwUigbg7GOLe8gq8/fU4bpNOuqM95P/OdAO86fRDtuq/n3hIY3jspgA5JM6N0qw2JS4y1i54lxwmJJWZoiOZ7mK8gfs6//f67Vbah2TPLpebdkjlIjob11bOoRsklOaZVzwwYmBbkqPMrky3ckMHBWj/GX59bwvaAYsRRkBAWLj7w9tfinW+4Uzus1fxAmznoGQeNOvw2S+BtgZm7Hgo9DIJ6yFfOl/RDJ6LHpMYs/k0EJhvQHG7nzymccjvUCRL2zOYpdnfHWNvsY2c80p4xz125ikeffkV7ffE+5AN84ORcG288MY86F4gwoyd+JZ9yTS/naMW1HFwuJ3j1SaIW1oqTFf6bpfK1Shv+5odfW5I36PFSWqh4hY6oiocrtbC3/kCVTrWJs+uZCFdrsEgRnoNRCvzNy9fw8mZf+o7JZYa5737wdrz3za9Fk894cR00fO5AVEd9qoOg3UUR1JExL5Bz7+xAHTHccZ49XvK2GVuGuGPyGKPhUBbqeySoTAtQgiKBy+Wj8RDDcaS9vXaHY/TGMXpxhCdevoRvPHcO/RH3kbUlnF7g4I5DM7j38BxyPdxCsbNFZ7p/Wq5VV8ilnNksBvA4dWhWKVXFABXABFVa53c/cm9JMzdSthOob0vMbnqOwGpdNuUPE/C2AIG+XDlZruajWmAExm++dGEDX720pjnBhAdX973z3jN4+E13o1vrCAA+g7DeammBBbNYhRci5zJ6Jt/cljoR2Zvg+r7F49x0ZzhCf9jHTq+P8XiEmlegGXL3oxwBr5HRWDzBuDeS4+IzbSZFie3JGE+8cBFffuol7E7IsZZ8adZdnNk/g9cdmpMl0vlQrzIxpGflSE7Zk0cIsoqtegoJqZMPLfontTAFZUZedH/Of/6R+0qNDk2cR+SOUmb8qj6CKufIKVnjQ8HosLimQSGuL5lFR6R8pm+W/NzqLv7k7BXtosE9sLjG9a2vuwnvffPrsK89jWzEaeygyfaiThtFrYGSD5LQCnE2Z4RosVc1YOs6VQMtP8KgN8AO04UDrhkbKtJq1x1MsdmNjRUEJY0wGvS1lXTI/f5qNT0S4LlzV/F3jz2L86sb8s+sENy8wIdTBLh9cVY7OtO4SIWc8gwMSIeGjYWzXEemnouqU4hPCGEGkANCnCqPoK/Opz/2QMnNzuloaLm2+77lGfkG8ow6fM/zMyqyn7k0iCVl0gTDfVmvG6A3zvBnLy7hhbUdpd9mwgbe+8CdePMb7sDi7BzSMXeHzLWRIyOtLKwhhW8PQksclGFNew3UGw2bWGmuSKrHQKDXR2/ERuOxnEm34ahTuxFy4Au4CduGRlpL1mg1ETZCDLMxXji/gkefOItHX3wFW+MJbt7fUVBATl1o1bWBhAFW7Y1bPYiNz3awxmx7atOEiQYpBQYKtssTHxAvOhAXmNU6//UTbyz3nuSmLaQ57fRCc16cDgSO7KMqph7QaAvLOKUYUNBKyb3MeBEHgvHs0i7+7OUrGIwT3HLwAN735tfhzjtuxv6pWXltPS+RSXFGQeCTOjKVz7ns3g0JVA2BF2oXzuE41i6e4tfREINoIulFF9doBpjp2F7frZptO6JPh1uf1BA2fQH00qVr+OrjZ/GPT53F0vY23nT9frzx2AIiOj52ufBZjWpYsRYrPgCDVWptwa+fjSbt75X8knKwvIFoQLqYwDpw/pT9sVU1Vk8grqQEpwV5RRr21QQ3t8Xj8iECrJfbVh5VVcEAZ54WWOtF+IPnLsh6H7zpFN7y4Gtw5uYb0W1OazpZNZhbQmWY5LlaPymRtNCYqh28UQdFZHsLsEMnTbkaJlHVgBbJ7H+jEWKqHWqVd7PTRDf01RPAB1CEpCrf02Ou2EpKufWPz76Eq5s7+K4zx3DzvrYskCDxnjVrq6c2sVfYcDEQbY9a7hP27ce1ala/2pFpkRetWELuL37qLWrYYD8BT0iNppZOhtD0iposltzW+lLlZ629iKcwYaCFqNXThqiSXAyiHH/0zEXsxBkeuuU03vD6W3Dm9A2ot2ZVtskLPsQiwiiK5anXN0bY3NzR98OY15KKGjjAtATz0qlifPXJci2EC7SCAI1GoNbMmekWugS6YztxUkJRr1JNvHTxCp4+exmPvngZW8MhPnjbURybaWorQHIkEypqVGHiRU9oJjXYQyM4Xdkuqmc/KLKzKEwrOdXYQigr50dQCe7f/MzbSgpuajPSh0ZEJE5FkNqBXIyhpUC2wQw5hA9h5z8CTW59NevlsoQcqOvvM89dQS8q8dqbjuP+O67DmdPXo9mclh7NuHN8HGN3PNaWppsbPWxs9VXe4eaQemwAwaTp8qapGTUNVaO3MBe2IRpzsJ1WqCWg3H5vZipEp96QVmbH+XAwxEtXVvH0xWt49soqpkJfwLZD20OGwHHgOEMkpTSbuJeBOTNGpjQ8Ak8KI7i0WOLF549Z8rvqGNIsB5wv/cvv4Op0xLQgbdlvW4mIc7mUUr1J7GNidZJWK7EmK1UqgxSgWr0lNijFaCm74xyfef4SVkYJ7jy2H2dOHsJtNxzBfKerRDJXiw+5Gnw81vbQ3BS9NxhhxA5ANnDwEaucWqw16aminH4MK6tHWRWZuJT0wx4GgtRsNDDdDLWzEbNoNQ+YcHf6wQQX1zZwaa2Hpd0BzixO4z2nDyP3crB6QlAIJq2V1sc8B3e6pzoyFcBPS1NyFnFrFT0FunrwG1/Pa2L+VhEqv//az72r5B/H1QMkuIkjHZc4tso/WmXSVIJWEHLNvrphuGSHPOujoFin8FapxsUoLvCZ5y/j4vYQ+7st3LBvFqePzONAt61SDacVd5HfjTL0xqlCYD6fi5tLTuLM9vHWk5VZrmZPqj3tnjOLlsPA0ySfVVmZWGl69nwEciz3i+HU5PL5HrdM6Y2wPY4wSFM8dN0+vO36A7o/3Vt1r2qmJkhVUyApUVyqR2FXQZSsljsvW5DAGS7fpNCX1OVoMJzH//W7yyhPtZMQN7+h3KE4lpwQ11pBjaPJi2CkoeyWEt3fThlaNp7bNJV69hYfAfC5s0t4fGUbtRI40G3i0NwUZusNRWmqv1fRCy9c25EkmTaKHMf22Cul6JSVr0JIfmZUK7yJSoyrzmWJ92oymWOlYlECGnKObNbgoHDmvfeWw7j32GzF26x3GS/SabKPjb/ntXFwCSh/5v1QepHCeB7uzMxkD89NUNWmVTk6Gq3zxM+/p2QtnjUrjUKWIaJ5y3L5Akvmytsx7JPwMkD1JGFyq3aNY7bKNt7hwrQ8LvGnL13Bt9b62lmDnSWdOtdTMTlugQbJQ4vlVIKxmcE2oDj5dugo3lLp2TQlf0fw6FMo95RQZ7WCwJB16XiU4rR0Hz94xTH1TVFiqubg++44ilMLU5bAVqKdfM4ZbJEWn8zMlgBeh1RBZa2kAT2tNOfW1lw8wqbBDFzZST7m+VRcJFbf+sX3lrRUNToIWPtkAokUQdnBsIIbi2kt2F7WS5RgS+2ZK+Bdsu7FnS2ZBxjEOf7qlSU8vdpDnwmESpoRBAYWWvBMGuEO9NX+AJRpvCju+EaqIDAMAk0nCpkqX8yuab6vWSv/piipyqZpSqt8x9dZ2Z6XS/DnWx7+2e3X4fBMQ7ytsJU7MsnBW/2KzorA6lw5tavNFEo+Oa6UzzGnRTPxYw8u1uMCRK8205ynful9JbUk+ZVbjfLxLrRanojPLORI6eb2IhEuhOCeh66FuYq6OO1IAdKN3IbUY/oUX7y4hs9fXkV/YjkfhXyKKpTwVF8B+bhWJXfY/EEL5M2pZ1erJUlBriqjXIZqKT/uhkzJxyYP7p5snpgWRSvjQOx9yGar9CazZO3Qxffcdgw37ZtWSxMHkkbD+aMZoiQ3B9ccJQGUw+L2fuJTDrppWTPIim+rJ0bt5Vuc537lA7JYUQC3auaD0V59zKlJDcXPPJGegyhVW+0FYxue7yW6uRcMty9l1ojLzx+/soU/fuWK1l6RAItq3yq+B89DbWIOj9EcNxOz52iRGhSYcPTFtVXpQwKPg8D6vCV+aIXsCqSSoWXRm1cxuGaUUiR6Dxu0etPB9585hhtJBaoYWLWEnVd8mpMGVWsxjJPJrczQiUt5/3puJLnXnt706qckGo2BFp/DOfsr311OKMYZ3dD09Sg/LvSwB6TT8uT5lFo0XafMuXIuVT8A6YCgcVUKpzrL366Hxy5v4nOvLKEfce9XbszD1THcrMEGiNOMIJFruayUfQHqrtHOFhbt0ZZ45xbRECnbmIcXwCKePLbCUQOEqob8r7CmWmbECoQGnvsdhi5+4LZjuIHAVhkslVCrra9cRV1UBBa+yhq5cRozXDI4CxC4IEZ0pcYOUgNBtXCYvOyc/dXvKSd0Xgn5lNviVzqNL9iLxnQyC/lo6mpOYBKckZbyBLZEXKBofywPfuHisaUN/LdX1rTFvry0Olu4HyybLhSrWE63evwKSz2STjQ2PUmj1COjjUOqD3kuNvqaKJfDkBXZYCtirNiG5+UgyAUwGe2xFA+8+6bDeO3heSSkM9EL34kz01ZuUxFRQhEsfh2nJqn2Ii46dfok/kyHZ5LL8OIMk4N9/n/7QKnnIqalxc2KLMixFcfJzCtqoNSxKM7a5TkjtWeK8R0zXLz4ei2AW3h4ZaOHvzi3hKvDWMdxo3BOJ+5LaOsTbFrzQaG0YCoFpXo5YDYZ1CaqTkBalrp1zDOpBE1wZUUGqKhSVGHr3HmTHCDlhhQhsi2qwAPH9+GtJw/CqSmkM2Wgcoxtf8IHszMHaw6KXyspJd/D9CHXHluqlXxsfohaln0PFsU5z/2bD5ZyXByB6ome5swswtEzZwlmartw8AakZ+W2iLBxrm1/SnA81LmBruurJ/VzL13B2d2RaVtpVxdxZM8N182r91VmI1B1tsrKCKZlJORb7H+VQtDrKO7l4Aie9e2Kh4mr/KMNHM/LX5rlFrjzyAzedeqI2kxJMTon70SOjMtfbWbaFDdMqGlFAwllqS1ulg4WJvQFfI1ZswKEp371e8qMO1RwX1Y+TppEXZgIThnTUzvy5BTzNH3pX/4zcBUo7OlRXTx3G3bQCGpY78f4w7OX0OOGjsy5Oi6GcYHdwUgWyxZ6Asq8KkHYy8bL6xMMhtB8L/1gLEB8CYZNe6u26m+KDuwa+C1/y3PyNXRaomexSIHr55t45NZj2Fct4OCMs+KhOUyWqPRYQyVjbO0bcwTcXJ2OijTA4wi8JYSUutDr6cRoic4Tv/xdpayTGk0b15jc4sMoySs8kcXoVdgmK6uSufw/N6BRNwynKz16CafGzSFqWN4Z488vLiNhDSvUTqzYGiYYsPAX5cqzErpMzsysdg9EWqpBJoMSKLQoASiLrf6o31Orqvao6yOyxJIv5FRl/oIDbwuNWT3w8L4zh3H9QteeZa5RsCKiSlN7Qj+Deg04w5V8EaimjpRT4XuJU+36OZtFB6SgR3/xPaWihowPfbDtQtNqV2F5Qnk6rX/UNOEUEc1xyrKhQw/J5S6YVkSTruV+DZ6PzWGCryxt4FrKUgwbMBzsjOw9Ii57j9mAYSUPzUW+vmrC4b0KQ62PqMxVYDJSsmM5mDyGl0Snx5ZMzixakyIyh0bCYyo6qbooW3UHj9x6WM9xZJ5VsSSrsrwrOmwVDvcUB/GwAECSi3qelCknRlCYk7DEFY2PobdaCb74r95V8mA+FZ7hmUhZnJtr/0FmeEgF8rZVz5IVIrga2vYdtA0krcFM0sn9/zo7lydNr/uun6cv093Tl+nuuUmjlmbGGiVxnFhGsmUsy4mIy8GKsVMpBYJNASlDhYpJUSzYwIo1CzZsqGLLniV/APtsqOJSSVgAsZVImp7p+2Wmn9Tn8/2d9327NUoKjjT9PpfznMv3/G7nd26sCRja05Pn7b/83z9r//voRHMI+XpQ5x08O471EWoMddpAyM5iYafcl5gIMtA3saGQAN+Bxl3JuWBQNXO64Ci7usou0uc/OiGcFtra939xp721c1OzCSCIByei0QFL080NMugYxDqAumN2pUdG3Din4OQMMpI/jTL853/5N91sx96WnYN4uJAnUWLpSdiddfJc2IZCqlh0ITJOP3isCUMiTvfEZXeSFTX/a++wHSmToM6wG+ca0G2OzZmJaYSSCBO29/Q7qdMf0/Z9reoxjiYW59QikpC7yistAbm/SJ5fqHhjZa597xdeaV96dVuFAyiIOXvv+mUhpFgwXKO48zwjtnZ3aQjKqmcsslmM6n74T//i10YMYvvF1YtgXiu/XWHxKyUhdxAB+mhj3qCI3aZOh0imdWomLeA6fOac2f/5yYFUirDAqKdl4RK+Bwg4ghA/QBrOn8m6vSgmxISNBnjleevxaUjydYSjGp4moPEx0zL9JxJn8/rQvvP6S+3L97dN354lsrVbGYoCqDU2KgQBgF3foNCUwbZfLANGtVnnqw+Z8vzHf/a+QzNWHFPC65xSL9l76G8WN6gw1A5VSugAxUG97edjdoVqmUZPx+APP3rc/tvHe9p/AEdr8h/dW7YhhXLhEKlKwMgiDSn/B1l/AFR5qcgISmmDqb3KfbfMFB2AXBZBp9z1paF98+Ht9tUHN+U0xABti7zNZONod6gz7wK49j0CudyRaDUpt2xqXuJ3UJT9h9//1mg3DmP4eXoTrC9llDIDbbQmTRPTBrehc1exO9Xita6WrqzD4PGFInth9T/82cftv3/M9MoUHmpgxnf6+Tg0IgPt0UG93TegbAy4gTXgiLQIdrR4Adg1Bao3ugqrm4MBFI7j8vpSa2+/tt2+9drLbX4BEMmLFTFwU4DB4aTM1BqCqsNlcDVKi0YCA+J216ZuVp0wYxv+/e+96+xzyPsIC6D6xQxDxHvOP3pgppKhB1mtTCwWktUySs5LhGpBHJFAOv/1o8ftjz89sKWldUYb2XO7RkKVndVoXGszF3VLCjwsOSmwQbcADdVCrQLZbdiyMLi2o8FFnY1Ikmyu/PUHN9vbO3dUZrK/s7QDUsAJEXiUVfWmBLHMK8prQ2m/ZnhHB3yJieHf/fjd0c0f0HBnGY5AmdnnLZ+BPgLlbFrJP54XCLxQmt0k52j1AUUAplH+6NOn7X98wsptTCLGpzJTOkNA9PkZVxIGRUr641NinA0AZ94qPOKUAuO/+VB8ylfxHZIPwGCt1L24aFtr8+29L9xtr99Z85ljk9VJIKKdhQmAoUrcNTwL2LFUdE8quxh5yLdQuOsX/u3vfiNWAaOz5dnCQiC+kxOk3sgT2FnKUgww1TIsCEXAhoAqxnqnmOQxtj95/LT9yZ8fOtqLoc4oxDHDHhYywAhGgdSN+MvAxkeBbOU6GzTG/DMWv/OheOMRzT+JZPmAsCj/7gbA3mk72+th8VpehCKiDOgBAOQdFC6r26GCauOoAXDyBVzqIQVTYyl2aMO/+QfvjDhgHIqAikqRuRENogBfgSCEl/W5V4UyzyAjpZkjiygIUFSGhvij3b32p7snxrPL54hwhktoSFq7gxiFla5y8CrqtEFzjotUa9zADmAmQKF6QlJrrIIkkTgq2dba7bWF9u6Du+3e9mom3JUIIH9tWVcjZptsKdceWTepUg+tASkhMpm1CWkUcJprw7/+0dsj/gE7BM+GSV9Y/6IjorBmDGE2MYsZQ4XiKnReQSkvr6mOFkKA++MnT9vuadl/Z2l1qscJzTo7aH5A8f+kLUuJTu41wH0bZZRG8K9p+b8AMmUpVFdYVkJTcIl4c23B7UnubV73WQz95K9FAuUpN0PFcBnA6Y2bKKwATWauEi/QnWbEN//qt98emWmXjgEUlZ7RRTlx07WLYKYLy386tl2OmZkvXUFAJYgEe2BD89D0jw9P2tPTsT09ZkUhLJe60lAUHJuZOsvlAowim0BmftqZ1WHwP8DlZYFGULmVjyANhN0VsaXsFdfYYlsr8+2d1261exyBXa1I/ZzFhR7RPs7BkymLPE/MosyiYKcGZBVN9xEjQyjv8M9/8OaowwVQ6XmVrQaFZeQgJE470lpSpxQa/yggulpAcJl5wjNWUs+1/aPT9n/2jt3diLEoEqLSKAXBxQXhYWacNhffJvLNaURKiTjVoR41blEtVaW7aiIFsJUnFGXyXfclgC7lJH9GJq4vD+2XX9lsr9+8oZ5ArpM+zUHGqhTbpXYtSssJtB0B581KmiWXux0cX4FE8Psf/NLIgmJARM46a1kfZ2SrraNwDTXI7rWiL6toqAAndWZubADOObEf7TH//7Tt2XuLPCRje1qkO49zfL4tLzYnaaBAkG10e7OrZeCiYUMv3AQgCtOp0cAN6ZcYyDOuQ6VyVL27tTbfvnhvq91ezw50AIH3ixTwN7GDM+l0tmCaU1/HxXoE5gsjIgXbmTrEj8zt3ePh7/+NL2buVhm3/HMoxj50NkFnaqLMVcCyJwGr76AalnvC/lRcy4Bup6fEjS6u+Nn+aTt8duGCYEZbOVsW2U0Fc3Y2FkSM72jgyC7nEki16Sx0igwBZhyLJ13by+6+JWAaFLB+RB6556udzeX2yy9tthValOewtQQSUSSl26GgMUKByGA41lydUhQxEzGQ8ukps3d50YYP33voGgQKzy+KisqpHBDGvbDVRcQJHUdLTe8hhvtZlXyt41UB6qd7h+3T/bNQHP84E5H1WjTK/EKNUkTo05kIgZQJhpxT+9bHAmfNrBBxjZ7SlfwNiBN53YNLqKqR2thubSy2N+9tt/VrizGr/DA+ZhosNUZRxjHDh+ZNUr2zYBYkGBkLXkJmQwxt+MHX7wtsbLZMkXHRXC3qYGBP57OWRUZPY6tmBDQyFcDTBI6ItsEdhn/65LA9PUKbBgAOO6MB0aLuB4s8Rdw4F1Y1YmNOCwrVhho6jFbGq0pUEH3gb2RrUKec1JZfHikOhqHdXp9vj+7e8IBhbO1Ii+LIctpwDw6iYVYRX+YNeIqQ7HPoZJZOAN0k/Y23Xx01JWw2EmLruexoTLlksElPB5MKJRIgKREylenzFCobVSB3n3vsCFuafHxw3k7G5uFodBAAkPy1ezlPAP4nbfNDMeBcTqdEcH2bMsuiPggIKRQVCmCBPIH3Yk7NaXhokNGO+aHd21pur2yttWtuG51a1+z/mHQ8pVHRI5VqwEUcAHEWMnOwHA2JbFUdlyiDYIZvf+Wees+Ey11hVrZaMuVp/2tPi2tz6aZXyAPPVqh73qntP909bLvH5+3Eg8lJD0WYGjNU7shn9XBAlLaSSgW1y8mwYWBL6aY/KWPqfhlYW0qiiDeMa34Qqw9vr7Vb66sCzXf8pf5aB3bTkwfc6Uflp5DYinB5ZU+ciCWyiKWvgfjffnMnZzto2vAbcImW87uyjVIP0Z5VTeVR+QYEgG4tAn+u7R8feaj5/klWRAegVD+FyJSdkB7mS8RARMDU1We5+VNWQE/D2sE0fFM+WpVIp1S+lfWlF+Ul1Ld8bWgP7qy3m24aSXxQ4hJiiRmY7Sem31N/bG7iV3L1rLdfto4iKeoGnQzv/7WdkROdohEx+jEvUnA7BAWkmYRIk4GtbYuICCaYmRR1Hx6ftZ/tsm9Lupe2pqtOIkuhVNKgIaDy2IVhq7AD+QXMrEgn6bgGIyIKEBIjYyuYaBa3Ku3kuerE8Hrl2lx7/c6GZ89ANMjHHIoZIukbDLn6u7iMBplQq29Ju2xs3glq4lJ0xMHw7bd2RkFCo8sKVIQ1U1BW2DxUmoxJt7NQkY8yR6ViOsihOfeP/Wj3MHP4i9WYSon8xAHTK8sHat7glonOhVCogetOTZQhlJ/I+c5GT30nVJ2bojiKJrAX7cbKQvvCnfW2vrxkm5imMjKA8g8cWPHu4RmIAM9FyNGCdusRFzZ4ZC7UDKj4qpHmKsTvvPWqQsVyOazBK8yJUAwZwxokgi1oi3VxYGlSEz1dxstow/4BGzUe6XSRcigAM2HKtFrWnxe53RUY1gml78Ao3vhvglTSkXcEffIwyqubZBZrhmz5hXIbvti59vD2ettYXUqddcCEM/1asHxTzAA8cQRJWKRP/S1UyhrC4m/ktNj9+ld37Pflox5VcWUmfE/CUGmnCsAzROfYsulEVMYXzTVbn+ydtH2XO+Krhb0yeY3KY6alaICdRiEvnEOaSYYqRIerF6hfFgX7zMTCccU4ARuigbwMTOds7cHttXZjfTl7bhOzzjkAGmgX6sQtKoX6VQirl8FYnB3pdRoRfgp9VKm+886rI/NdUUBhwbCmrVfl6bKGZIIpuRijFFgyFWSux6EdHR61n+6y7V1anIahEpFlKQTyUpec099TSBLBxGVldrqQpa3Bjkz8F0oUbkceuvmV56ZjMVNeK99l7GJr92+tucoGs5K6Sd0TY6/Soy5l5SDakMMQBmdB8C4jKcmGckiIBbKYfPDO/RGZynZ4tAqCWBlD+9FfZ+jC2aOIiDkPmOA6QMO5+SXAuvhmmdhxcHjS/vTxIdsLxAEyMEdB549FSTc44024KzWwBaG4g3W5UfTVHw/oHcCc5vlaAAAgAElEQVTQTUDrMrkDCzdULY1BHSJW2JK/tfs319rm6lIM/JTcd+ZrivzWiUhc15B7ZG7gT/64ABLfMtQMIen/u1974CZCJIAshYKkxiL50FdkKONbyczyt/POKrCS51nhoInMeoID5vGJG6pjs2Ka6A8oWU0evEMMOEJhmVNI6sbMFihG9sKTpssp0axfmWx8UdiEZUymnvYfh8aJnTUSL2+utO11DpEo4PhboixdBr8yORoERUuS0nOKlwyr+5qGSANbXrD77tcfQOixBIwTDZkehhCamB9gC9ZCuhQE9ra7YMH1uEstY/t0d9/1W/ZStFlTInpqMB3jRifOsEnDGYptKWinMMpCw3S/aCikbNZ0/upbylOU7X39o5KsDC9wlhfn2t0bKx7X6oiycBSgNSIiYUUzC6Djej4OPRMCcFkH5sxq8JRHRff9v/5whJ2JZjLIFfu7ABIrQcsT4Ew1xjwjBNzyPtQQANOQY/t4d699+pSs2MIU585F9pBxpkpMLh0gyqZQJ1RK5fVXlJwjLZ71AUYDoAOw2VrltACX1bDW0ALmfUaSWTUz116+udqWmWdUlAagPSn4jqASlEPD3qTHcH+UbrevYy2Eypn7lRkmWhnff/fBiJ0WloCNoUASzuQFsmIhBzIwsisiIhWy5BaERrB1cQE+A9inbY/tS/QGkV++oQOAXHUopFjbCtUYFUuVwhlZ3zBZFjWJ26kyrkUfBtqA9KJQRWXm+cbyfHvp1lq7vqh7yRfkrzjIoIxuTGvmjkYROURSxpplNR6/RAQTTbDsvwWew9969yEcVZSTBCDvSnrm4/4kY1sRGJFDxLZVjcG42Xn79NN9lyHFLRdQnbeFMtISSF6yMJ+ZT7aU0qdLk7r6puZJWZH0uiLHIv8pdD6nYtlyhQQ1sywTIXqDuWXry3PtpVvrbdkdLcKlnjnORczoiDY1f3SHoFHv2mYgILIpcawiqVtrCjcAdmwLsLMgUn6uQoFhBU9KJlZlHvpGQMRc6R4gEuSamTQffbLXDo7sGLpEibSenAYkAgXR+IZFIz+kWjKHotkRiXVjZ6zksfOQtPUdd2JJtlZSkp6BMu+7OSiPqYRWlxAFa+36tUXTUQggw4tUnIbalbZKOYothFVmXdm5xCKN+FemmtWxs9/45hfGGLh5wXUS4D4Fhb21JUszkjFv7LqVbE1RYtdw1MjP/nzPGYuWe27wjAXHhKrSYIgVwkIQRxyYFePweLxDzP2COk3Db0Kdyn/ZBLkZTlAkXPLbIjY7c6cRYUOSWFlo7fb2qjve915VtbVfcgnVdS7Lc63WpCP4RMQG52HWq+VI75iqlu2D9wA2st5XxWI6GRDeZsS7TNDIf90JnOdUYNqaF+1g76R9/PjApwS0P+v9uYeV2HeeVwCyiHkmxcSpbbeWCqnEMtUHSiNtvnczTsuT/ywEwZpXxes3xr1kKdXxfGl+bNs3ltutjZWcIKe4DGz+T5K5tE4Reik7xCARVRzT1GKKzZthnCrKD37lDTfboRvXQaUyOiZELtaAFTdOuoizcwygDRogbPe8Pdk9art7x9nvkNEEBgrZjg9ZWd4iKU2DOr0bsdDLFQ5xFmDlO1/sb2dCahU2n2nfFq4Eu7F1LZUCHlu2Sp0s8hvb1upiu7O5FsM/bey/WDipByEiLvSqMPF5xFrepPxnggo6kbuqjx/86s+NtCr/dZcdlKTS8XlERCg3m/Um6Rj7sWIDDpt6se7q6RO2cTqxEJkXJpNYYChXpw7pVe8LUB2YxAqolS6ID4rjbHKpojtrqFIpM3tkgVEKiowIuA4VkTr3QY/nmHXbqwvt5uZ6pn4WeWA6IVmSPvXK8DysHXMyz6LkpqMLvAETubrYngYaPvy1X1TCMq0m5kvYj2WLsCYRI4cKZNqdCiF3ZY9kSuG4fsZeA8fn7QnT408zJEwyEBagEs/+NnZh9d/7hGUoyIFMOxCcjRXedO8vRX5aGPCZLBEWDmCEfk8IuOFpy10WBxS5uTLfbm6tucUK9Y0ZGRFEQ1EPnjHfDFZHFIlBkssfuSlLWAlBg4d0FMY2/O1f/5Llsd/MXC3kRI1EstABsPvIo3kXtVH9OIUj6HkOeM9Pn7eDfY417ScspTnwE9C+jDRgQNOt1WasxclsheIsbRZp1CgvM8lDd5HfdDIAHvbPhjwRBxEjqbE/PUTiGI9/NJwUu37N87ywmWFhAvlEGcFRaVzzxuBQ0dY9b2ygcAPFQBdB7X6PZ4Uy/eiDNyVLtK2TwWBF2JfVITWn3vlMigabX6D6XwJAEWBxbNj9p4cuTKbMjAzQGSC2i5ql9HjZHeXlX9mP+AzchBKLAKXnpLny8qsEI+aEYkqcBUORk9KMyudeYBmeL/AAdmttUVEQkRSiABSoj3gmg2jifapmOtEN3ikASe/UAUVKF5FFsLH/3ve+MsJyWJyZrpjuJ9sveQZArfgGcL+Acsvop6fBMk6ed8phP6z9Jwft5CSHNkKxfAuLkS9dVcUD8xPcXqTA0lJDzGTaO3kcsRDNUYdQt1P2U+2AVqDycYz4K8BW6OD6w85HdBI219q1BXZGLKOf/0ywd6czryB2LNUmRiyM6CRUYcxS3oAV8Ea5zrXhd3/zbQdE+WOFMXFcKwqlMp+K6UeReWx5R9pQsud/F604H4GOAGz+7KId7h20Y7bfU7ngLox29jBIKJZFyVImA5FJR8OfRtWjH4rWOtFEK0UKsFYyDRwwY1wnXkhmyrLUixZADKRHBlUueXL9dffmiiklXr4X2+p9aiGoD3JdyNe/AG3Tl7gjX7CwbD/+rXdGlVTNWpZ1XS1TWzHRT3e/EyqWWTKCb/qVkfZ5KsDE26O9o3ZwdN6OXbPLGjB+o7DAkQbAUmDakcM9yFQ9XZlYhsOFRiYu1CPoFJrSp07FIcXIkpSYfoZaRaryTRzmN4ztzuZKW19dkSAAWyVkMjGv1Pg459lDIbAXmBFriRnnPXI6MENIacDhH3/4dbCwQMhSqPK01aYGLk+CfFBi7IcCRSFLav8/PTupBGW2VZ9zuMORfgK1qu8xs9KpYJBOlqd7CQkDphRYU420bSvt2veba4uB/LcCqZboVsNOhOELAjhnGlTEDp2SW5srbWuN82f5NNTfQbP3SUTBje44L2rGpARMOTRRFGsOxBZnmefv/fa7I7JVttMiyMw5/KXsiQ3AFywgqyWOzmRxd7SQf3Glyucasvr8Wftk96AdnWTbabLRuyUVIXejYdc5/mluXkrlFQ2UhSSmmspCSdqzrGOVqSYFFwZJJ/I96F4ODsckOf8Jnid2jO3u5krbWGVTyhAFFAv9I1OJxLXmFU4huYNEAn6+iYjKHT/Boyc4/OR33lUUYCvq8nLuVCYds6iOtQmcoxigWZvAjO9QN1REyWFXEqWzcHpy2j5+fJgpoFVYkOc9mhQqpCNA7ogHGpUG0AyTsu1+R44Wa3IZt0NmJQok7/qIbv3hOQBEcJQ85l15ujDq+cUyeGlrtW2ucYB6NHwvj/HsBKU8UVGVX0+P2yKUdFAsnN/bB6Ucf/B331PEUvhYAYAbdschwjT6LFSerqRxvS3yto4JIWkKR7KHe0dtb/8061NhKeVPQAJApoBya3HpUPA+iMRxwmobVzEGnL7GinVj6IC+StJKAmw1QmRcfq+GzN9KAxMHQri9vthubXFKRyAlzQBj8UpilmdLZVY6pPLgG0CHYDrxSLXiPLbhD374Kzm5o2QYC3EB0ENssArYwEtQw6aZlFwyuNbXUmYCvtP9J3QOnrk8B2DptZApwLtvgANzcUXyGYuEoygoeBqJQ9q0MGrwEUCJTCWkmF4PlVp13zog/Cl0BIGIera6FZGY+AvubZe/wHQzVifdKg2isDrncI4IMzBtJBPBHxhaN08HCfgbXTL85IfvjySKmSBQ1KHkKWu7FAkuS8LhwftnylgcIuzt2v2j9ETOj07b3t6x04jIRIGuyzFdxDhlmr5WnuH1Ssmm7Aaly371HbMghaOAteqkq9KJfRyUxcF0Ei+hUxhPXPhB413Elt25ve4OSqSVPCInjeO39WXpALNRuSY76kY9eRfiTCMpFP7pj953/1jNqlIeA1PbYbtaS9unztNpQMa51gmZS5cXSjati3a6h/PlXM1OaSgEhVWGYlJdjB6cxv3BWTbckTL5vpDQjCPUL5uEpSIUPOnaG1Q+Qy2dRSlDh3MapsCWSKikV64N7dVbazkDvIgckdRlrhTe/bKkojINEaHouMMH63eU24TTMLwbfvLDXx0BMCZUqJZ++MhOnBwH4lGqiIcA7c6YtVUehof7CdBBYG9CZxdijKQyrpWyQFWxNra1lWvtEFv39JmzY5hny17XyD1KpcsNjHonwS8jAgJLuCA31Xg6SUpUAG4iXg4kqqmX14zM7NxebatsqVJ2qJkA8mRiYD4V6PqQmJmZiXwtm7m+q6IYhn/yO9/SKlAM1MaHAIVSeMa4o5slZsECcTSz9C7lEPacWDS285PT9phJcM9Z5BFe0nSzvcMiyFsm+7K5BB2OdB1naSp1ga20W6uwERTAlpkzVsNKhJKmgfJQ0dlnFQpY31RP6pWtlbaxtlz+VtgZaoxJGN0Rm5X/4Szo0Y4OsSNYJw3KU8Vf1Xf4R3/nvRErAHYf2LqJdtCrFSA5KY8WDTUTD8CydAi7NzJ4VAzsH5xO5IxmDx2OMmOAGJnLWL671kttU7tUU0elUUpA/0XedcFIJbVgZEkgimgwiQKzEzOUHJNoJpTsjEgY2931pba9uVqzeaYNVkUS7KSRxperWOis9Il7MdZEqJqyTcrx4w+/OWZ4GRXMZt/IWXxlGfLmK5aHcx0RUcPRFBxZS8/o7Lzt7e634+O0p/KoyySHg1MhWpNrQMYqOOmT4aRSNkMrg74oAoAzpBPDPkIGqoKiA2hAzuhtD58BdCaIDfPUxni57m6zOnG+HCuUI0YX6XolZfIb5ZVEArpZ0q2uxrAERbXDP/ytb4zsvIN9ONQ6LzaegRWhGdLVe4dslfWRfVniyA3XWAO7uwcuklMUSUjp7joco48zE5MdUNQKqSGP8gVQZjoOvI+DO1pfl2PJW6m0GgwzLJRMObr8uwpuQLka7N4i75fn2ys31/VZUK8oqqSLH4JvYwZSrziSBF0fRYI6oMrvnqPa5bgNv/+OW5e4gaI7nxXVFPwOcdPVNYWAAqjM1BOcC7xZ+21/99jJa7r3xlFndZc5anKdKqw7gBIDAeyEIuIaCj6XDhwv9ooSoqV5Ql7Gt0yIo1IuHdiZ0Km3U24HPGnyPI6SJRTYrdW2tJRlSXkdkcW1ZevK1+9is6eEZJ0V7uFE8grBKYY+/OCrzp7AUGfUgN02KHpwzZwuWkGxUGDy6ygtcvDZ2D795HE7OTiL2VWLIpjSg9JzSgFdXX0AGVaRSgV32tOJTVriQjMsVMpkZdJjXm0gglojEl5kXhE+D1jsYxuCexXY2F7euq4Ck/G1jeNaJF9yIYUcJEQBuA8VK08FVO3gKIJEpxIb2/C973zFPWHQ8ukd0EpxYEMhnBXPtCPpBGBJTaUUx8v56Vnb/bOn7ZAV3s65ysGUiALsfwIiAYJ3XWoR2CGgl75Xw9pBCgVYb4a/i7LZOhXTDcCpUCUbGcdvVWoCZH9h2h0O7yIGfM/MyIu2eX2x3d5aDUXCFcgyh42MErdm5ekqGhMKgaVLS3mr6bwMRw3fff9Lo77WsmMjtm2/zE8tYHiKQbwg9pEjpHR6eNT2nx61XU4z1vvOfH1LqS0IVSAzsyVpAOQPspPGce5sLR7GtYh1gjsBgBEtxnbScoiNX8oniGkDRRfgFq6TcAnsgtdbwU3+HOTz8vaq27CSmMn2b7Czq8gQkQQitkI3SZeI/PZrwvD+u78wxlOFLE1LkyEtG4VT5F+AY+fxsSzwfGx7ztE6VXb6HZRelXbKkJOLaeFQW55YBHftBC32raVBsRKIw3Wc7kkvsUNRUkilz/MJwNUIHcxelwDLdd7b5owm1D1jbDvbGU2QW6r+vDdfdUAIRXHuK77N+xBYKT4onudYFt945w1VLLIUzMgSPKAkWqiDTEjfnysKT6fgvD355KlbOSMGyBBqcwQ2MxpFU3t0bG4qrl6lECx0Zm7WM3bOiBTChMLKSKcynq/Yxb1xY00IlQom5eIJ+VtfK5YyepeHk2sqTQXzmBTH9tLGcrt147rlpO5aK1oAYJWy06BQryLC5/kFo14ORZk+jtaGd966jwsgCqv6waCJl59CkpEiASVShU61Wzs64LDdYzf+4jnPABbJA0iwvnBoc2ayBvYg6TpCIFsxVDKd7U3IZOSIEhQqsUzddBLpEpvbAFgdeLqKol8QZxZkxAF1QynjN3hw54YHBft5pKgrLL3WTKrGLNVOXSMmbTEbAJEX42low5e/vGPPK1o+EpYMOTyCWXRLrA5hY0hAdvYHLTLngZDHTxkpyL7WvQVpDu9r2yUKQeGltGJrtSYeLWRrrXM9coZMCg7L4zqkkLR+p04psQNrOatBr4DGpRxUVEqYjcOPWqS+Z94s+8Nsb7DTfAwnqFcFRTI8gKNKHKQWJIq/NqBbc9eqliD54hfvjfoGoAasESahucs7fftFzQwoS5cfleI5kxNOTtrh3vFkHVcPcVyHevWUCU78svxjJADtjrgILdIpCFB6jcrWjenWWb8KNqHYgDYbBEtiDcnZuN6HWyYAT8RKlZs4cxft7o1r7dZmHN9d1hKr2ifxNAVtyYnVEAka8Rb9EF0wPPr5u+RbmSumzRGnA513AAYEl81jfrC7BusH9g/b6XG279eRXO2IWAmFpjSAB2uzJT+0QM9KIzsZGYfGwCqwUg6v51vu5aKSYTzgqgPSxYLBOHnhX2VzPaGCM0GQeVQOcEp5e2Ox3dleT8JufhYAe6ekvqzhbcRU0qXePRAvyQ5tePjodsnngEBGSJYooSxH4hls56Hy2AVnZ+10/8jzrezqmXYUG9zQLQy+CzuXPKNM5UhBhtkJEOwAQrBL612GZQIqxQ8AHTwrgk/jSpBKyWwGzBcC2xtBjMd2Y22u7bBHDBxZ/o2J3U5c7dOA6LYDnZoBvoqE2HPlETT54As3RxG2lwNlFrsDZFEs4/5SLsOFvD45aQf7p+4H61J6Up1Ho2dbUhtphv1CwZlSBAWwfwEKkEG9E0rOJN5yZnDLPISstiYETmS8ppaV7LglTm/EzwuWr7DlO+cYiGhkNy9Xllp79c6Ge4yTniJt0pjTNJgQKDXnYQjH8lH+ami+ffhgG/qyx0vRUFBSLaRaG+iM8+yIwdqAoS0w7HLIKUYpENGgRL7FeEZpqFTCaXYMCJQFRYUPl0rhckS2hqXiXCSR3v/2f+6rUt1O7fnlviooTpGlnTq59xk3L6TYYEsg/cWF1l67vdaWlxcmQ/umJzsTsUSCz5KkXf3SFZwqIqVWuYadB9sjk2Uhc5SLFkFI1msoV5s2L9rc8Vk7Oz6fKAeemQlsT5q1shtw8JQlJBJpdOWGEjgrCcX3GNhQM8Fh9ap4gIl14FuT6i8SOpj9t4cOoHHrcvKMYJXq5XDRXt5c9iS7OOhpKOGNcpLz+Eh4g7U0w32NFueN5RvuPdgaF8tTzseyOiOX7lUYEcDWeooG5hUccd52NpuBakibstopUDHBFJka770FpCC5ZgyLAMDkFYAii5GtnbV4znsro6lVFkF9T7DfD4UIfDefZiIEsqL8KaBTcHlRcnYc2/r1+XbvZkZuTa8UIIE6cS9310MIRGFRdY/Si6UwvHZ/S2pPzMxUdv6nyotYdbAOTojjs3ZRzhZakbTC9mFB7dOaiU3ngIbiO4BSPtqz6uNaEQmyWykAgE3cBJQoDWDReC6bpTVQalBKr3kHFNB02s+GArbHQax5L5vj5w5Y7Fnz6vb1try8WJOkrZlxQsHhtnRfATb7GpiF3fGiXv7u3N+UqnuLUjCpFN8NBUC+Yn4xmHXCjp0kGjkqQDqq4+2apS4ASaGQdeEIlZtih+xD7Vx3JzgN439inv6d/oIgI7v1MKHWmdCB67/92l5kUSXBenmfOKZVpuZLG0tt7cbytHWr4ekwdJEpwF2t+S7KC6KRipHvr97fSv01/CFrdtTMWbPPy4ZFCS2cnutaZA4VVeYZXiBMK2TiSs0Z0AKApWsKkv1+RwKKYmxhriOH4Qr+0SiYWiHBUDY1hfgw6aTqPArwxQ4dnLxJuApwZ/1L90XFuedP5hzcXFts2xvLE9DIZBbMaX6EqW9YYCGQIo7h/mvbIxU3vg2bvQrjl4xxvuTepLVxV3d4VIGcyTIMbdlhlZI1Ki4SDOVyqXwSVOxUnBVRCS6o6EvuS65SGEVnoluG9MAo02zlpqLAUN8CQgexB8CcfdbBhjMmiQxj21gZ2t31lfY8XsQSdQEvzhmeX7R5dujUNRql2+UvhaNmE3OrmjBkzH/iOtcWnj9v8yennl6B1CSxAJuOBM7rJTdtwJQiTmSNbCE4PDcrGyAgZcijKzZchAAnIFWJUEeuJRyQ7vMCrFx/UWXnCqqayG1jTO47kLPP/TVBL02G7aPuri20OfYY5ztbOtNOjUb5LQNmYfLnuQSiCKSurQ0PH25LC2gzmVlEYyHw/BrnwZyl69plSJeRKVtpyu4nKLnIPWmg5R0QrDWroOJMmQKaL0PliJHIYYvhlkEWMRXyk1JaAC5HJFwF8zMh9Z/Emw16xOo96TOUdG91oV1f5hQQBgjTcRERRFMRXxAINwbKNHjMRkTB69v2vKQe5SnKK8b6IiO3eq+oPK0ReUtisAiVxK03sTvr76xTJR2AyOOUn5GEiBuCFF49LahCBViVtCczQ/l0XgIgAFWFr1Dii0KP0wNxZ59NrgVtbDeWhnaXHdI5NL5aEKJxfgU3ElD+Sw2Kk4WaBrhow+uPblokSBmwmLGc0YOhjafPnCPrCGbZaBRKY6WoLU7s7FFIa/Kd/WwyKBPMKtv5yDfIXzoRAETBBD/lNeRp711Ng2LEUdDEeBFgsyE0dVkMcG3ZZ+L298ZnajxT6Vfm2xJbzivyIIxYIYycOHHFxg3lEvBXp9RMqG5teOPRzXERAuVIkeokwKKuuTrNIo8kEtciZB2xkQIJLqcQaxlH+USj8w1ZxpSBzXuAKqvKpoPvVWpl3EoS7aBGrkI0Vl5gfWoAHBvazv9ngS1Sr8tp/v26x7/8Ljt33FgY2o0VXE7hZKJEJ4RY1CMXsYSoB3VSHMOBNN6XH227m4sOFx4zp4jTKwpUPPtlAxv4VusAg35uzr28o6wCU6gaLclZODHLoFQngpQ8AjzlKnGrsCToo6qjsWfz7bMMq4dF+AyQFXg7accracz+ToANIsbtNi2et+2lebeT6mKvEwJfgcEFwApyPoaX+WtDfO0NlBcJFfrj6NnbnFNAYMMGlBNuRL7gmpaDfUmMWSzdBtUeLSWkIgsRmy7sH81K4SKraFAc2gG21nzxgTaNtGuIiZN4EzD+CnA/L0DdfMP3+bYr4QoTN+jY1hfm2spSOemLx/oINMTE0A3cBiF13SM9kP7XHm2O9O+Vq9ii5xft4CSzCsm2g6TfQMM9lMYvz8E71kASJXXGqrRJc6vMJX4aJ9F41tNTxBTXWinKLMlVxeuKvx3HUPDU73s1hH7SOfGbKyJjtmG4NhceyZ5qcTtHGwtZjwawUK3L9EvkYWJCUMpaCWNiuLbhq4/wFcTzRG0Pz3IgpeNa5pWmgB2gTD7NRLUAlzIHEXtdNaBmBkVp/R5KpQI2VoRA4tEA5bTOvKhYA6GoKXUSMmltCsr/a7gK6Gwa8ZHUs7lMmafjs+wElExP5ZQ7RBLlg+NEqMRYNzt9+vbD7ZExLl5wnpdbNiFmtTOrNXRKxyQiUwAEBv2pRZlkHNOqDnisludrBMQ5XFEUqTkGy0HO1jON5o0VnQJJ6CBQm47D/w+oV8NVkCcN2MvuBu+cEJ3js1miytCUI8e1cXD/hr9UJ5ZPa8NbDzYtoYs3PMi8e8lDZZQ/0rcDV7KUI/n0cpFoCpKr2LUuflNJ5Y1gl3zFyuA7C8Zv1cc7M+UuD2cLLz2kKJeANY3J3UyoxvBl5XE14ovEA8FLKWFsS3XmLv+mMWLTJ+LlMkhoX7l/w5kwKCFOJSIC1Np7T5A3xnyAybOIhcjY54oM+VaZ5rmDbhIZ8Bip9Rs+phBF5QTShN0wrZBf5u67sFZkybQqyFQqPwtqfXUZxM8Ns9VP6JTq9KoJyLEOkm5sbqwDeo7oiZ4932kx1D1FBRe59M2ddVfNMOkCTw1eGhLrVCXdcV2LmDXL+oQ152SRQQAAYOfS1gnIUCvCXaE/MVWyKCLiJIKC/NOrooIdZCowBZVAvFlQPy9cAr+j8znfRVhdpdYoMjmRx55Jzsh1hqeCTKwJsKAeROvD5qbxS/fWXEsLqPzHCKSmFK1DPGQiNih9/HJGkyCg8Y8ITvaorixOCEcb8HwxYltCv7N+pyzy1PwqokQD4/JNTVJR310B5Or9pVCaOjxTIcl9fqj3HdhZgPMC6g2BOfRvWUPNjgvyTc21IBv+ISaHn7+77uTspDMtUnc0E2CTLiPNtvr0aemYGWRxWr5JeoJQJUA730u2T3xTkfVo8fTmYC/1gQORFCNauOdtljNUmJJcCf1BolwOvCvwLEERolEnF3l/FdguEogCtYZoanKJVJ34lNsNiAqb4dHt9bRxKSS2bkpS8eQAdsyomE1+iZOBVC1sbF2ARzwwGoAThzQiClIoMMFh3UUMlNXNArJh+qa15P9eE0MA/UsptQIpdWLIfU9mNsHk0UXD7DeXgK1CRCxN38NZvELe6sUiWnFoLyK/wxu31yZuQ1jaxCJZi9WjgAi9x2VadQ2lAroxiG9BYouSAXHKMvV9fJm9nQEseXV/gPRd8tac+KbyJ1wF768MwXWlXhcAAADySURBVGf24i8NHdgJwFyXt4+griiFhuKyy46oUAmn+pLVG3fXR6iNCKSFPIXcTUlZmtWIskF9hD3LVHJlcAEX73palA5EB5pmwqVG+kQPiMXq4FZHBFb0DMNwbQJTaqWiUm2v71WMeH71GeFKfPK9SvyTtGfuZ39BawJJ5qZEaUkIMDFgs3dZ8iGl4efubngkCgEQiQnrd/dfZCvD3xEHgKj2VoBkrwHuARaqDCUnLl9OJVSCV+6kTIQoKKMUuLZ4Pnwx+19OLqE/45vSiDyahI7mDKqANmtidVNuNvCuoJOLvCoLB3wQeeHuWEQOaVXh/gLJQnu3SI472wAAAABJRU5ErkJggg==;" vertex="1" parent="1">
          <mxGeometry x="172.31" y="381.68" width="26.69" height="63" as="geometry" />
        </mxCell>
      </root>
    </mxGraphModel>
  </diagram>
</mxfile>
